<svg xmlns="http://www.w3.org/2000/svg" width="25" height="25" viewBox="0 0 25 25">
  <g id="Сгруппировать_33" data-name="Сгруппировать 33" transform="translate(-1993.971 -50.254)">
    <g id="Сгруппировать_32" data-name="Сгруппировать 32">
      <g id="Сгруппировать_31" data-name="Сгруппировать 31">
        <path id="Контур_30" data-name="Контур 30" d="M2015.309,53.914a12.5,12.5,0,1,0,3.662,8.837A12.5,12.5,0,0,0,2015.309,53.914Zm-3.431,13.752,1.141,0v0l-.752.629a3.331,3.331,0,0,1-3.146.9,11.056,11.056,0,0,1-3.216-1.442,14.779,14.779,0,0,1-2.538-2.045,15.037,15.037,0,0,1-1.9-2.3,11.672,11.672,0,0,1-1.425-2.884,3.332,3.332,0,0,1,.834-3.4l.741-.742a.53.53,0,0,1,.749,0h0l2.342,2.342a.528.528,0,0,1,0,.748v0l-1.375,1.375a1.12,1.12,0,0,0-.117,1.458,16.409,16.409,0,0,0,3.813,3.742,1.128,1.128,0,0,0,1.441-.125l1.329-1.35a.529.529,0,0,1,.749,0h0l2.346,2.35C2013.108,67.124,2013.108,67.459,2011.878,67.666Z" fill="#1a4b6b"/>
      </g>
    </g>
  </g>
</svg>
