<svg xmlns="http://www.w3.org/2000/svg" width="25" height="25" viewBox="0 0 25 25">
  <g id="icon-whatsapp" transform="translate(-3391.015 -194.21)">
    <g id="Сгруппировать_13" data-name="Сгруппировать 13">
      <g id="Сгруппировать_12" data-name="Сгруппировать 12">
        <path id="Контур_14" data-name="Контур 14" d="M3412.507,197.717a11.977,11.977,0,0,0-18.957,14.25l-2.535,7.243,7.242-2.535a11.977,11.977,0,0,0,14.25-18.958Zm-2.548,12.917-1.382,1.383c-1.146,1.145-4.4-.247-7.259-3.111s-4.256-6.113-3.111-7.258l1.383-1.383a.734.734,0,0,1,1.037,0l1.728,1.728a.734.734,0,0,1,0,1.037l-1.037,1.037a10.173,10.173,0,0,0,4.839,4.839l1.037-1.037a.734.734,0,0,1,1.037,0l1.728,1.728A.732.732,0,0,1,3409.959,210.634Z" fill="#fff"/>
      </g>
    </g>
  </g>
</svg>
