<svg xmlns="http://www.w3.org/2000/svg" width="25" height="25" viewBox="0 0 25 25">
  <g id="icon-mini-phone" transform="translate(-3656 -3783.064)">
    <g id="Сгруппировать_40" data-name="Сгруппировать 40">
      <g id="Сгруппировать_39" data-name="Сгруппировать 39">
        <path id="Контур_84" data-name="Контур 84" d="M3677.338,3786.724a12.5,12.5,0,1,0,3.662,8.837A12.5,12.5,0,0,0,3677.338,3786.724Zm-3.431,13.752,1.141,0v0l-.752.629a3.336,3.336,0,0,1-3.146.9,11.1,11.1,0,0,1-3.217-1.442,15.422,15.422,0,0,1-4.433-4.346,11.673,11.673,0,0,1-1.425-2.883,3.334,3.334,0,0,1,.833-3.4l.742-.742a.529.529,0,0,1,.748,0l0,0,2.342,2.342a.528.528,0,0,1,0,.748v0l-1.375,1.375a1.12,1.12,0,0,0-.117,1.458,16.416,16.416,0,0,0,3.813,3.742,1.129,1.129,0,0,0,1.441-.125l1.329-1.35a.53.53,0,0,1,.749,0v0l2.346,2.35C3675.136,3799.934,3675.137,3800.269,3673.907,3800.476Z" fill="#2c80b8"/>
      </g>
    </g>
  </g>
</svg>
