<svg xmlns="http://www.w3.org/2000/svg" width="25" height="25" viewBox="0 0 25 25">
  <g id="icon-foot-mail" transform="translate(-3069.829 -5383.25)">
    <g id="Сгруппировать_57" data-name="Сгруппировать 57">
      <g id="Сгруппировать_56" data-name="Сгруппировать 56">
        <path id="Контур_99" data-name="Контур 99" d="M3082.329,5383.25a12.5,12.5,0,1,0,12.5,12.5A12.5,12.5,0,0,0,3082.329,5383.25Zm0,4.388,7.4,4.612h-14.794Zm7.511,11.946h-.09a1.334,1.334,0,0,1-1.334,1.333h-12.237a1.34,1.34,0,0,1-1.339-1.339v-6.991a1.3,1.3,0,0,1,.021-.227l7.078,4.36c.009.006.018.009.027.014l.028.015a.782.782,0,0,0,.154.059l.017,0a.785.785,0,0,0,.174.022h0a.778.778,0,0,0,.174-.022l.017,0a.782.782,0,0,0,.154-.059l.028-.015c.009,0,.018-.008.027-.014l7.078-4.36a1.311,1.311,0,0,1,.021.227v7Z" fill="#fff"/>
      </g>
    </g>
  </g>
</svg>
