<svg xmlns="http://www.w3.org/2000/svg" width="72" height="72" viewBox="0 0 72 72">
  <g id="icon-whywe5" transform="translate(-245.75 -2429.322)">
    <path id="Контур_318" data-name="Контур 318" d="M288.95,2442.522a1.2,1.2,0,1,0,0-2.4h-1.2a1.2,1.2,0,1,0,0,2.4Z" fill="#2c80b8"/>
    <path id="Контур_319" data-name="Контур 319" d="M314.114,2458.172l-5.458-2.339-4.106-2.053v-3.946l2.248-11.985a7.2,7.2,0,0,0-7.077-8.527H284.15a3.6,3.6,0,0,0-.333,7.184l-.811,3.246-2.37,5.924a1.2,1.2,0,0,0,1.114,1.646h1.495l2.152,7.53a1.2,1.2,0,0,0,1.153.87h.837l-.187.125-6.753,2.532a5.989,5.989,0,0,0-3.849,4.884l-1.753,15.057-3.895-3.9v-3.1a1.2,1.2,0,0,0-.351-.848l-5.254-5.255a3.746,3.746,0,0,0-6.11,1.215,3.68,3.68,0,0,0,.467,3.688h-1.455l-3.7-3.7a3.746,3.746,0,0,0-5.3,5.3l5.255,5.255a1.207,1.207,0,0,0,.613.328l5.972,1.194,2.716.679-.9.9a1.2,1.2,0,0,0-.073,1.616l12,14.4a1.2,1.2,0,0,0,.867.431h.054a1.2,1.2,0,0,0,.849-.351l3.951-3.952v9.1h2.4v-32.4h-2.4v19.9l-4.719,4.719L265.374,2481l4.376-4.377,5.152,5.152,2.4,2.4,1.7-1.7-1.99-1.99,1.972-16.933a3.59,3.59,0,0,1,2.308-2.924l5.623-2.109,2.074,8.295a1.2,1.2,0,0,0,2.035.533l.3.6-1.859,18.822a3.578,3.578,0,0,0,.051,3.713l-.744.836a1.2,1.2,0,0,1-.9.4h-2.362a2.4,2.4,0,0,0-1.843,3.937l3.64,4.368a3.59,3.59,0,0,0,2.765,1.295h2.8a3.6,3.6,0,0,0,2.315-.843l5.3-4.447.62,1.086a1.2,1.2,0,0,0,1.638.446l.009,0,7.795-4.548v8.311h2.4v-9.711l4.2-2.452a1.2,1.2,0,0,0,.6-1.037v-24.435A5.994,5.994,0,0,0,314.114,2458.172Zm-52.473,17.986-.055-.013-5.644-1.128-5-5a1.346,1.346,0,0,1,1.9-1.9l4.055,4.055a1.2,1.2,0,0,0,.848.351h6a1.2,1.2,0,1,0,0-2.4h-.7l-1.3-1.3a1.346,1.346,0,0,1,1.9-1.9l4.9,4.9v2.606l-2.768,2.768Zm32-7.236H295l.7,17.458-1.163-.776a3.578,3.578,0,0,0-2.491-.567Zm1.771-2.4h-2.117l-.617-1.234,2.134-2.669,1.392,2.319Zm1.14-5.667,6.911-4.936,2.665,1.332-7.336,7.336Zm-13.6-27.933a1.2,1.2,0,0,1,1.2-1.2h15.571a4.8,4.8,0,0,1,4.8,4.8,4.863,4.863,0,0,1-.082.885l-1.849,9.858-4.04-4.04v-.557a3.748,3.748,0,0,0-3.6-3.742v-3.6a1.2,1.2,0,0,0-1.2-1.2h-9.6A1.2,1.2,0,0,1,282.95,2432.922Zm2.354,12.87a1.2,1.2,0,0,0-1.154-.87h-.627l1.742-4.354a1.216,1.216,0,0,0,.049-.155l.973-3.891h6.263v3.155a3.871,3.871,0,0,0-.394.342l-1.654,1.655,1.7,1.7,1.654-1.655a1.345,1.345,0,0,1,2.3.952v1.26a4.07,4.07,0,0,1-1.2,2.9,1.7,1.7,0,0,1-2.4,0l-.351-.351-1.7,1.7.351.351a4.1,4.1,0,0,0,5.8,0,6.47,6.47,0,0,0,1.491-2.314l4.011,4.011v3.686l-6.839,4.885-2.45-4.082,1.738-1.737-1.7-1.7-2.049,2.048h-3.4Zm3.816,11.659,1.849-1.232,2.523,4.205-2.765,3.457Zm4.528,41.19a1.2,1.2,0,0,1-.772.281h-2.8a1.193,1.193,0,0,1-.921-.432l-3.631-4.368h2.352a3.6,3.6,0,0,0,2.688-1.206l1.421-1.6a1.2,1.2,0,0,0,0-1.6l-.315-.354a1.182,1.182,0,0,1,1.538-1.769l2.279,1.52a1.2,1.2,0,0,0,.665.2h.5l2.624,4.592Zm21.7-11.208-12.758,7.443-3.662-6.408,7.518-5.369a1.2,1.2,0,0,0,.5-.977v-13.2h-2.4V2481.5l-6.458,4.613-.73-18.135.318-.636a1.2,1.2,0,0,0,1.7.047l.024-.023,9.025-9.026,4.744,2.033a3.6,3.6,0,0,1,2.182,3.309Z" fill="#2c80b8"/>
    <path id="Контур_320" data-name="Контур 320" d="M263.75,2434.122a13.185,13.185,0,1,1-12.784,9.9l-2.324-.6a15.584,15.584,0,1,0,11.209-11.209l.6,2.324A13.224,13.224,0,0,1,263.75,2434.122Z" fill="#2c80b8"/>
    <path id="Контур_321" data-name="Контур 321" d="M263.75,2438.922a8.391,8.391,0,1,1-7.79,5.25l-2.224-.9a10.792,10.792,0,1,0,5.964-5.964l.9,2.224A8.345,8.345,0,0,1,263.75,2438.922Z" fill="#2c80b8"/>
    <path id="Контур_322" data-name="Контур 322" d="M263.75,2450.922a3.6,3.6,0,0,1-3.6-3.6h-2.4a6,6,0,1,0,6-6v2.4a3.6,3.6,0,0,1,0,7.2Z" fill="#2c80b8"/>
    <path id="Контур_323" data-name="Контур 323" d="M250.55,2441.322h5.5l6.849,6.849,1.7-1.7-6.849-6.849v-5.5a1.2,1.2,0,0,0-.351-.848l-3.6-3.6a1.2,1.2,0,0,0-.849-.352h-2.4a1.2,1.2,0,0,0-1.2,1.2v2.4h-2.4a1.2,1.2,0,0,0-1.2,1.2v2.4a1.2,1.2,0,0,0,.352.849l3.6,3.6A1.2,1.2,0,0,0,250.55,2441.322Zm1.9-9.6,2.9,2.9v2.606l-3.6-3.6v-1.9Zm-4.3,3.6h1.9l3.6,3.6h-2.606l-2.9-2.9Z" fill="#2c80b8"/>
  </g>
</svg>
