<svg xmlns="http://www.w3.org/2000/svg" width="72" height="72" viewBox="0 0 72 72">
  <g id="icon-whywe3" transform="translate(-3165.72 -1555.928)">
    <path id="Контур_30" data-name="Контур 30" d="M3205.2,1560.573h17.419v2.322H3205.2Z" fill="#2c80b8"/>
    <path id="Контур_31" data-name="Контур 31" d="M3237.72,1611.993l-2.851-.951,1.344-2.687-4.469-4.468-2.688,1.345-.95-2.853h-6.319l-.95,2.853-2.688-1.345-1.413,1.413-9.89-9.888h16.938a3.484,3.484,0,0,0,3.484-3.484v-32.516a3.483,3.483,0,0,0-3.484-3.484h-17.878a3.462,3.462,0,0,0-1.932.585l-6.09,4.06h-18.229a3.483,3.483,0,0,0-3.483,3.484v27.871a3.483,3.483,0,0,0,3.483,3.484h16.939l-10.342,10.342a8.143,8.143,0,0,0-8.278-5.681,8.377,8.377,0,0,0-7.609,8.244v2.191a8.118,8.118,0,0,0,3.484,6.661v.593l-3.917,1.119a5.829,5.829,0,0,0-4.212,5.583v3.464h25.548v-3.464a5.83,5.83,0,0,0-4.212-5.584l-3.917-1.118v-.593a8.12,8.12,0,0,0,3.484-6.661v-1.841l13.255-13.255h3.684l11.53,11.53-1.413,1.413,1.344,2.687-2.851.951v6.319l2.851.951-1.344,2.688,4.469,4.468,2.688-1.345.95,2.854h6.319l.949-2.852,2.689,1.345,4.469-4.469-1.344-2.687,2.852-.951Zm-61.548,6.3a8.055,8.055,0,0,0,4.645,0v.28a2.363,2.363,0,0,1-2.054,2.369,2.323,2.323,0,0,1-2.591-2.307Zm12.774,6.175v1.141h-20.9v-1.141a3.5,3.5,0,0,1,2.526-3.351l3.54-1.011a4.614,4.614,0,0,0,8.771,0l3.54,1.011A3.5,3.5,0,0,1,3188.946,1624.464ZM3184.3,1610.5a5.813,5.813,0,0,1-6.185,5.794,5.873,5.873,0,0,1-5.428-5.9v-2.114a5.874,5.874,0,0,1,5.428-5.9,5.813,5.813,0,0,1,6.185,5.794Zm-4.646-47.607h18.933l6.676-4.451a1.162,1.162,0,0,1,.642-.194h17.878a1.162,1.162,0,0,1,1.162,1.162v5.806h-46.452v-1.161A1.162,1.162,0,0,1,3179.655,1562.9Zm-1.161,29.033v-24.387h46.452v24.387a1.162,1.162,0,0,1-1.162,1.161h-44.129A1.161,1.161,0,0,1,3178.494,1591.928Zm56.9,24.711-2.664.888-.2.512c-.058.149-.116.3-.18.44l-.225.5,1.255,2.511-2.1,2.1-2.511-1.256-.5.226c-.143.064-.288.121-.435.178l-.518.2-.889,2.668h-2.971l-.89-2.668-.517-.2c-.148-.057-.293-.114-.436-.178l-.5-.226-2.511,1.256-2.1-2.1,1.256-2.511-.226-.5c-.065-.145-.121-.291-.18-.44l-.2-.512-2.663-.888v-2.972l2.664-.888.2-.512c.059-.149.116-.3.181-.441l.225-.5-1.256-2.511,2.1-2.1,2.511,1.255.5-.225c.143-.064.288-.122.436-.178l.517-.195.89-2.667h2.971l.89,2.668.517.195c.147.057.292.114.435.178l.5.226,2.51-1.256,2.1,2.1-1.255,2.511.225.5c.065.145.122.291.18.44l.2.512,2.662.888Z" fill="#2c80b8"/>
    <path id="Контур_32" data-name="Контур 32" d="M3225,1609.341a5.807,5.807,0,1,0,5.806,5.806A5.813,5.813,0,0,0,3225,1609.341Zm0,9.29a3.484,3.484,0,1,1,3.483-3.484A3.488,3.488,0,0,1,3225,1618.631Z" fill="#2c80b8"/>
    <path id="Контур_33" data-name="Контур 33" d="M3202.115,1569.866a8.139,8.139,0,0,0-8.524,8.12v4.645a8.139,8.139,0,0,0,8.129,8.129v-2.322a5.814,5.814,0,0,1-5.807-5.807v-4.541a5.874,5.874,0,0,1,5.429-5.9,5.812,5.812,0,0,1,6.184,5.794v4.608a1.186,1.186,0,0,1-.987,1.186,1.163,1.163,0,0,1-1.335-1.149v-4.573a3.614,3.614,0,0,0-3.215-3.546,3.489,3.489,0,0,0-3.753,3.474v2.245a3.545,3.545,0,0,0,2.524,3.424,3.417,3.417,0,0,0,2.256-.118,3.475,3.475,0,0,0,3.631,2.567,3.533,3.533,0,0,0,3.2-3.547V1578.1A8.206,8.206,0,0,0,3202.115,1569.866Zm-1.556,10.405v-2.248a1.186,1.186,0,0,1,.987-1.186,1.163,1.163,0,0,1,1.335,1.149v2.322a1.163,1.163,0,0,1-1.335,1.149A1.185,1.185,0,0,1,3200.559,1580.271Z" fill="#2c80b8"/>
  </g>
</svg>
