<svg xmlns="http://www.w3.org/2000/svg" width="67.945" height="72" viewBox="0 0 67.945 72">
  <g id="icon-whywe7" transform="translate(-247.778 -2725.484)">
    <path id="Контур_324" data-name="Контур 324" d="M271.207,2745.535l-1.218.442a5.735,5.735,0,0,0-3.659,4.291l-.413,2.165a3.65,3.65,0,0,0,3.586,4.339h10.555a3.653,3.653,0,0,0,3.6-4.295l-.385-2.153a5.723,5.723,0,0,0-3.672-4.36l-1.291-.468v-1.9a1.148,1.148,0,0,0-.012-.156,5.181,5.181,0,0,0,1.481-3.6V2737a5.019,5.019,0,1,0-10.038,0v2.923a5.008,5.008,0,0,0,1.478,3.542,1.125,1.125,0,0,0-.008.13Zm9.985,5.16.385,2.154a1.542,1.542,0,0,1-1.519,1.814H269.5a1.541,1.541,0,0,1-1.515-1.833l.413-2.165a3.615,3.615,0,0,1,2.306-2.705l.8-.289c.02.02.04.041.062.06a4.863,4.863,0,0,0,6.377,0,.972.972,0,0,0,.092-.091l.841.3A3.607,3.607,0,0,1,281.192,2750.7Zm-9.346-13.7a2.908,2.908,0,0,1,5.724-.724c-.135.066-.274.129-.417.186a3.506,3.506,0,0,1-2.644.24,1.055,1.055,0,0,0-1.211,1.727,3.486,3.486,0,0,0,2.012.542,7.014,7.014,0,0,0,2.355-.448v1.311a3.051,3.051,0,0,1-.915,2.166,2.935,2.935,0,0,1-.909.61l-.068.029a2.725,2.725,0,0,1-1.075.193,2.924,2.924,0,0,1-2.852-2.909Zm2.812,7.941h.1a4.913,4.913,0,0,0,1.443-.217v1.687a2.753,2.753,0,0,1-2.881,0v-1.683A4.966,4.966,0,0,0,274.658,2744.939Z" fill="#2c80b8"/>
    <path id="Контур_325" data-name="Контур 325" d="M258.162,2774.829h32.846a1.055,1.055,0,1,0,0-2.109H258.162a1.055,1.055,0,0,0,0,2.109Z" fill="#2c80b8"/>
    <path id="Контур_326" data-name="Контур 326" d="M258.162,2780.516h32.846a1.055,1.055,0,1,0,0-2.109H258.162a1.055,1.055,0,0,0,0,2.109Z" fill="#2c80b8"/>
    <path id="Контур_327" data-name="Контур 327" d="M258.162,2786.2h32.846a1.054,1.054,0,1,0,0-2.109H258.162a1.054,1.054,0,0,0,0,2.109Z" fill="#2c80b8"/>
    <path id="Контур_328" data-name="Контур 328" d="M258.162,2791.89h32.846a1.054,1.054,0,1,0,0-2.109H258.162a1.054,1.054,0,0,0,0,2.109Z" fill="#2c80b8"/>
    <path id="Контур_329" data-name="Контур 329" d="M257.108,2762.4a1.054,1.054,0,0,0,1.054,1.055h32.846a1.055,1.055,0,0,0,0-2.11H258.162A1.054,1.054,0,0,0,257.108,2762.4Z" fill="#2c80b8"/>
    <path id="Контур_330" data-name="Контур 330" d="M258.162,2769.143h32.846a1.055,1.055,0,0,0,0-2.11H258.162a1.055,1.055,0,0,0,0,2.11Z" fill="#2c80b8"/>
    <path id="Контур_331" data-name="Контур 331" d="M254.268,2774.833a1.058,1.058,0,1,0-1.059-1.058A1.059,1.059,0,0,0,254.268,2774.833Z" fill="#2c80b8"/>
    <path id="Контур_332" data-name="Контур 332" d="M254.268,2763.46a1.059,1.059,0,1,0-1.059-1.059A1.059,1.059,0,0,0,254.268,2763.46Z" fill="#2c80b8"/>
    <path id="Контур_333" data-name="Контур 333" d="M254.268,2769.146a1.058,1.058,0,1,0-1.059-1.058A1.058,1.058,0,0,0,254.268,2769.146Z" fill="#2c80b8"/>
    <path id="Контур_334" data-name="Контур 334" d="M254.268,2780.52a1.058,1.058,0,1,0-1.059-1.058A1.059,1.059,0,0,0,254.268,2780.52Z" fill="#2c80b8"/>
    <path id="Контур_335" data-name="Контур 335" d="M254.268,2786.207a1.058,1.058,0,1,0-1.059-1.058A1.059,1.059,0,0,0,254.268,2786.207Z" fill="#2c80b8"/>
    <path id="Контур_336" data-name="Контур 336" d="M254.268,2791.894a1.058,1.058,0,1,0-1.059-1.059A1.059,1.059,0,0,0,254.268,2791.894Z" fill="#2c80b8"/>
    <path id="Контур_337" data-name="Контур 337" d="M314.042,2742.094a7.268,7.268,0,0,1-1.022-1.516,7.654,7.654,0,0,1-.38-1.883,4.534,4.534,0,0,0-4.937-4.936,7.7,7.7,0,0,1-1.883-.38,7.331,7.331,0,0,1-1.517-1.022,7.939,7.939,0,0,0-2.52-1.521v-.319a5.039,5.039,0,0,0-5.034-5.033H252.812a5.039,5.039,0,0,0-5.034,5.033v4.071a1.054,1.054,0,1,0,2.109,0v-4.071a2.928,2.928,0,0,1,2.925-2.924h43.937a2.928,2.928,0,0,1,2.925,2.924v.319a7.939,7.939,0,0,0-2.52,1.521,7.327,7.327,0,0,1-1.516,1.022,7.7,7.7,0,0,1-1.884.38,4.533,4.533,0,0,0-4.936,4.936,7.747,7.747,0,0,1-.38,1.883,7.275,7.275,0,0,1-1.023,1.516,4.641,4.641,0,0,0,0,7.149,7.306,7.306,0,0,1,1.023,1.516,7.749,7.749,0,0,1,.38,1.883,4.535,4.535,0,0,0,4.936,4.937c.37.045.729.09,1.059.152v15.942a1.62,1.62,0,0,0,2.619,1.275l2.242-1.755v19.257a2.927,2.927,0,0,1-2.925,2.924H252.812a2.927,2.927,0,0,1-2.925-2.924v-53.217a1.054,1.054,0,1,0-2.109,0v53.217a5.04,5.04,0,0,0,5.034,5.034h43.937a5.04,5.04,0,0,0,5.034-5.034v-19.257l2.242,1.755a1.621,1.621,0,0,0,2.62-1.275V2761.9a1.054,1.054,0,1,0-2.109,0v10.766l-2.8-2.195a1.622,1.622,0,0,0-2,0l-2.806,2.2V2758.8l.231.182a4.642,4.642,0,0,0,7.149,0,7.31,7.31,0,0,1,1.517-1.023,7.758,7.758,0,0,1,1.883-.38,4.534,4.534,0,0,0,4.937-4.936,7.656,7.656,0,0,1,.38-1.883,7.234,7.234,0,0,1,1.022-1.516,4.641,4.641,0,0,0,0-7.149Zm-1.655,5.841a8.825,8.825,0,0,0-1.315,2.016,9.274,9.274,0,0,0-.526,2.432,2.611,2.611,0,0,1-3.1,3.1,9.26,9.26,0,0,0-2.433.525,8.83,8.83,0,0,0-2.016,1.315,2.708,2.708,0,0,1-4.534,0,8.83,8.83,0,0,0-2.016-1.315c-.051-.021-.228-.089-.266-.1a10.424,10.424,0,0,0-2.167-.425,2.612,2.612,0,0,1-3.1-3.1,9.27,9.27,0,0,0-.525-2.433,8.826,8.826,0,0,0-1.315-2.016,2.707,2.707,0,0,1,0-4.533,8.833,8.833,0,0,0,1.315-2.016,9.223,9.223,0,0,0,.525-2.432,2.612,2.612,0,0,1,3.1-3.1,9.271,9.271,0,0,0,2.433-.525,8.822,8.822,0,0,0,2.016-1.315,4.361,4.361,0,0,1,2.263-1.226h.008a4.361,4.361,0,0,1,2.263,1.226,8.822,8.822,0,0,0,2.016,1.315,9.231,9.231,0,0,0,2.433.525,2.612,2.612,0,0,1,3.1,3.1,9.264,9.264,0,0,0,.525,2.432,8.832,8.832,0,0,0,1.315,2.016,2.707,2.707,0,0,1,0,4.533Z" fill="#2c80b8"/>
    <path id="Контур_338" data-name="Контур 338" d="M307.5,2742.317l-3.589-1.016-2.075-3.1a1.332,1.332,0,0,0-2.214,0l-2.075,3.1-3.59,1.016a1.333,1.333,0,0,0-.684,2.106l2.307,2.931-.143,3.726a1.332,1.332,0,0,0,1.791,1.3l3.5-1.288,3.5,1.288a1.333,1.333,0,0,0,1.791-1.3l-.143-3.726,2.307-2.932a1.332,1.332,0,0,0-.684-2.105Zm-3.457,3.958a1.333,1.333,0,0,0-.284.874l.109,2.852-2.679-.985a1.334,1.334,0,0,0-.92,0l-2.68.985.11-2.853a1.343,1.343,0,0,0-.285-.874l-1.765-2.243,2.747-.778a1.331,1.331,0,0,0,.744-.54l1.589-2.373,1.588,2.372a1.331,1.331,0,0,0,.744.541l2.747.778Z" fill="#2c80b8"/>
  </g>
</svg>
