<svg xmlns="http://www.w3.org/2000/svg" width="25" height="25" viewBox="0 0 25 25">
  <g id="icon-instagram" transform="translate(-2437.146 -50.1)">
    <path id="Контур_32" data-name="Контур 32" d="M2449.646,60.114a2.486,2.486,0,1,0,2.486,2.486A2.49,2.49,0,0,0,2449.646,60.114Zm0,0a2.486,2.486,0,1,0,2.486,2.486A2.49,2.49,0,0,0,2449.646,60.114Zm4.142-4.053H2445.5a2.4,2.4,0,0,0-2.4,2.4v8.283a2.4,2.4,0,0,0,2.4,2.4h8.283a2.4,2.4,0,0,0,2.4-2.4V58.459A2.4,2.4,0,0,0,2453.788,56.061Zm-4.142,10.845a4.306,4.306,0,1,1,4.306-4.306A4.31,4.31,0,0,1,2449.646,66.906Zm4.444-7.721a1.019,1.019,0,1,1,1.019-1.019A1.02,1.02,0,0,1,2454.09,59.185Zm-4.444.929a2.486,2.486,0,1,0,2.486,2.486A2.49,2.49,0,0,0,2449.646,60.114Zm4.142-4.053H2445.5a2.4,2.4,0,0,0-2.4,2.4v8.283a2.4,2.4,0,0,0,2.4,2.4h8.283a2.4,2.4,0,0,0,2.4-2.4V58.459A2.4,2.4,0,0,0,2453.788,56.061Zm-4.142,10.845a4.306,4.306,0,1,1,4.306-4.306A4.31,4.31,0,0,1,2449.646,66.906Zm4.444-7.721a1.019,1.019,0,1,1,1.019-1.019A1.02,1.02,0,0,1,2454.09,59.185Zm-4.444.929a2.486,2.486,0,1,0,2.486,2.486A2.49,2.49,0,0,0,2449.646,60.114Zm-12.5,2.486h0a12.5,12.5,0,0,0,12.5,12.5h0a12.5,12.5,0,0,0,12.5-12.5h0a12.5,12.5,0,0,0-12.5-12.5h0A12.5,12.5,0,0,0,2437.146,62.6ZM2458,66.742a4.222,4.222,0,0,1-4.217,4.217H2445.5a4.221,4.221,0,0,1-4.217-4.217V58.459a4.221,4.221,0,0,1,4.217-4.217h8.283A4.221,4.221,0,0,1,2458,58.459v8.283Zm-4.217-10.681H2445.5a2.4,2.4,0,0,0-2.4,2.4v8.283a2.4,2.4,0,0,0,2.4,2.4h8.283a2.4,2.4,0,0,0,2.4-2.4V58.459A2.4,2.4,0,0,0,2453.788,56.061Zm-4.142,10.845a4.306,4.306,0,1,1,4.306-4.306A4.31,4.31,0,0,1,2449.646,66.906Zm4.444-7.721a1.019,1.019,0,1,1,1.019-1.019A1.02,1.02,0,0,1,2454.09,59.185Zm-4.444.929a2.486,2.486,0,1,0,2.486,2.486A2.49,2.49,0,0,0,2449.646,60.114Zm0,0a2.486,2.486,0,1,0,2.486,2.486A2.49,2.49,0,0,0,2449.646,60.114Zm0,0a2.486,2.486,0,1,0,2.486,2.486A2.49,2.49,0,0,0,2449.646,60.114Zm4.142-4.053H2445.5a2.4,2.4,0,0,0-2.4,2.4v8.283a2.4,2.4,0,0,0,2.4,2.4h8.283a2.4,2.4,0,0,0,2.4-2.4V58.459A2.4,2.4,0,0,0,2453.788,56.061Zm-4.142,10.845a4.306,4.306,0,1,1,4.306-4.306A4.31,4.31,0,0,1,2449.646,66.906Zm4.444-7.721a1.019,1.019,0,1,1,1.019-1.019A1.02,1.02,0,0,1,2454.09,59.185Zm-4.444.929a2.486,2.486,0,1,0,2.486,2.486A2.49,2.49,0,0,0,2449.646,60.114Zm0,0a2.486,2.486,0,1,0,2.486,2.486A2.49,2.49,0,0,0,2449.646,60.114Zm0,0a2.486,2.486,0,1,0,2.486,2.486A2.49,2.49,0,0,0,2449.646,60.114Zm4.142-4.053H2445.5a2.4,2.4,0,0,0-2.4,2.4v8.283a2.4,2.4,0,0,0,2.4,2.4h8.283a2.4,2.4,0,0,0,2.4-2.4V58.459A2.4,2.4,0,0,0,2453.788,56.061Zm-4.142,10.845a4.306,4.306,0,1,1,4.306-4.306A4.31,4.31,0,0,1,2449.646,66.906Zm4.444-7.721a1.019,1.019,0,1,1,1.019-1.019A1.02,1.02,0,0,1,2454.09,59.185Zm-4.444.929a2.486,2.486,0,1,0,2.486,2.486A2.49,2.49,0,0,0,2449.646,60.114Z" fill="#2c80b8"/>
  </g>
</svg>
