<svg xmlns="http://www.w3.org/2000/svg" width="25" height="25" viewBox="0 0 25 25">
  <g id="icon-foot-whatsapp" transform="translate(-3069.829 -5342.754)">
    <g id="Сгруппировать_65" data-name="Сгруппировать 65">
      <g id="Сгруппировать_64" data-name="Сгруппировать 64">
        <path id="Контур_101" data-name="Контур 101" d="M3091.321,5346.261a11.977,11.977,0,0,0-18.957,14.25l-2.535,7.243,7.243-2.535a11.977,11.977,0,0,0,14.249-18.958Zm-2.547,12.917-1.383,1.383c-1.145,1.145-4.4-.248-7.258-3.111s-4.256-6.113-3.111-7.258l1.382-1.383a.734.734,0,0,1,1.037,0l1.728,1.728a.732.732,0,0,1,0,1.037l-1.036,1.037a10.167,10.167,0,0,0,4.839,4.839l1.036-1.037a.734.734,0,0,1,1.037,0l1.729,1.728A.734.734,0,0,1,3088.774,5359.178Z" fill="#fff"/>
      </g>
    </g>
  </g>
</svg>
