<svg xmlns="http://www.w3.org/2000/svg" width="25" height="25" viewBox="0 0 25 25">
  <g id="icon-mail" transform="translate(-3687.436 -194.21)">
    <g id="Сгруппировать_5" data-name="Сгруппировать 5">
      <g id="Сгруппировать_4" data-name="Сгруппировать 4">
        <path id="Контур_12" data-name="Контур 12" d="M3699.936,194.21a12.5,12.5,0,1,0,12.5,12.5A12.5,12.5,0,0,0,3699.936,194.21Zm0,4.387,7.4,4.613h-14.795Zm7.512,11.946h-.091a1.333,1.333,0,0,1-1.333,1.334h-12.237a1.34,1.34,0,0,1-1.34-1.34v-6.99a1.309,1.309,0,0,1,.021-.227l7.079,4.36.026.014.029.015a.738.738,0,0,0,.154.059l.016,0a.743.743,0,0,0,.175.022h0a.743.743,0,0,0,.175-.022l.016,0a.743.743,0,0,0,.154-.059l.029-.015.027-.014,7.078-4.36a1.309,1.309,0,0,1,.021.227v7Z" fill="#fff"/>
      </g>
    </g>
  </g>
</svg>
