<svg xmlns="http://www.w3.org/2000/svg" width="25" height="25" viewBox="0 0 25 25">
  <g id="icon-mini-mail" transform="translate(-3949 -3783.064)">
    <g id="Сгруппировать_36" data-name="Сгруппировать 36">
      <g id="Сгруппировать_35" data-name="Сгруппировать 35">
        <path id="Контур_83" data-name="Контур 83" d="M3961.5,3783.064a12.5,12.5,0,1,0,12.5,12.5A12.5,12.5,0,0,0,3961.5,3783.064Zm0,4.387,7.4,4.613H3954.1Zm7.511,11.946h-.09a1.334,1.334,0,0,1-1.334,1.334H3955.35a1.34,1.34,0,0,1-1.339-1.34v-6.99a1.308,1.308,0,0,1,.021-.227l7.078,4.36.027.014.028.015a.767.767,0,0,0,.155.059l.016,0a.747.747,0,0,0,.175.022h0a.739.739,0,0,0,.174-.022l.017,0a.782.782,0,0,0,.154-.059l.028-.015.027-.014,7.078-4.36a1.308,1.308,0,0,1,.021.227v7Z" fill="#2c80b8"/>
      </g>
    </g>
  </g>
</svg>
