<svg xmlns="http://www.w3.org/2000/svg" width="25" height="25" viewBox="0 0 25 25">
  <g id="icon-mini-whatsapp" transform="translate(-3656 -3833.515)">
    <g id="Сгруппировать_44" data-name="Сгруппировать 44">
      <g id="Сгруппировать_43" data-name="Сгруппировать 43">
        <path id="Контур_85" data-name="Контур 85" d="M3677.493,3837.023a11.977,11.977,0,0,0-18.958,14.249l-2.535,7.243,7.243-2.535a11.977,11.977,0,0,0,14.25-18.957Zm-2.548,12.917-1.383,1.382c-1.145,1.145-4.4-.247-7.258-3.111s-4.256-6.113-3.111-7.258l1.383-1.383a.733.733,0,0,1,1.036,0l1.729,1.729a.734.734,0,0,1,0,1.037l-1.037,1.037a10.163,10.163,0,0,0,4.839,4.838l1.037-1.036a.731.731,0,0,1,1.036,0l1.729,1.728A.734.734,0,0,1,3674.945,3849.94Z" fill="#2c80b8"/>
      </g>
    </g>
  </g>
</svg>
