<svg xmlns="http://www.w3.org/2000/svg" width="72" height="72.01" viewBox="0 0 72 72.01">
  <g id="icon-whywe2" transform="translate(-3458.97 -1258.307)">
    <path id="Контур_34" data-name="Контур 34" d="M3526.113,1294.321a50.086,50.086,0,0,0,3.536-9.049c2.6-9.375,1.339-17.225-3.54-22.1s-12.729-6.136-22.1-3.54a50.1,50.1,0,0,0-9.049,3.536,48.012,48.012,0,0,0-11.147-4.061c-8.422-1.846-15.521-.4-19.988,4.065a17.563,17.563,0,0,0-4.808,11.651,35.6,35.6,0,0,0,2.506,14.243,6.681,6.681,0,0,0,0,10.5,35.608,35.608,0,0,0-2.506,14.243,17.565,17.565,0,0,0,4.808,11.651c3.2,3.2,7.694,4.853,13.121,4.853a29.512,29.512,0,0,0,3.379-.2,44.359,44.359,0,0,0,14.642-4.645A50.112,50.112,0,0,0,3504,1329a33.816,33.816,0,0,0,8.985,1.321c5.389,0,9.9-1.643,13.119-4.861,4.467-4.467,5.911-11.566,4.065-19.989A48.031,48.031,0,0,0,3526.113,1294.321Zm-21.544-32.656c8.609-2.384,15.728-1.319,20.045,3s5.382,11.436,3,20.045a46.722,46.722,0,0,1-2.725,7.3,69.157,69.157,0,0,0-7.469-10.76,6.682,6.682,0,0,0,.019-8.228l-1.668,1.3a4.532,4.532,0,0,1,.962,2.809,4.574,4.574,0,1,1-2.242-3.94l1.08-1.816a6.68,6.68,0,0,0-7.538.49,69.288,69.288,0,0,0-10.761-7.47A46.817,46.817,0,0,1,3504.569,1261.665Zm-39.253,3c5.713-5.713,16.188-5.5,27.336-.28A72.023,72.023,0,0,0,3477,1276.35a73.987,73.987,0,0,0-9.457,11.538,6.723,6.723,0,0,0-4.161.131C3459.723,1278.041,3460.409,1269.569,3465.316,1264.663ZM3477,1328.189c-4.781,0-8.844-1.39-11.682-4.227-4.906-4.907-5.592-13.378-1.93-23.357a6.681,6.681,0,0,0,4.158.128,74.015,74.015,0,0,0,9.46,11.541,71.991,71.991,0,0,0,15.644,11.964A37.771,37.771,0,0,1,3477,1328.189Zm17.962-5.1a69,69,0,0,1-16.461-12.31,71.962,71.962,0,0,1-9.03-10.967,6.688,6.688,0,0,0,2.885-5.5c0-.2-.008-.4-.026-.6l-2.1.186c.012.135.018.272.018.409a4.573,4.573,0,1,1-.483-2.05l1.889-.947a6.7,6.7,0,0,0-2.173-2.51,71.944,71.944,0,0,1,9.025-10.96,68.971,68.971,0,0,1,16.466-12.312,66.223,66.223,0,0,1,11.626,7.876,6.688,6.688,0,0,0,9.278,9.278,66.229,66.229,0,0,1,7.876,11.626,69.014,69.014,0,0,1-12.312,16.466c-.563.563-1.141,1.122-1.726,1.67a6.683,6.683,0,0,0-8.421-.176l1.3,1.668a4.534,4.534,0,0,1,2.808-.962,4.575,4.575,0,1,1-3.939,2.243l-1.816-1.081a6.683,6.683,0,0,0-.247,6.37Q3497.167,1321.929,3494.959,1323.089Zm29.655.873c-4.317,4.317-11.436,5.381-20.045,3a46.818,46.818,0,0,1-7.294-2.723q1.67-.933,3.337-2a6.688,6.688,0,0,0,10.475-8.185c.623-.583,1.24-1.179,1.839-1.778a72.006,72.006,0,0,0,11.968-15.649C3530.114,1307.773,3530.327,1318.248,3524.614,1323.962Z" fill="#2c80b8"/>
    <path id="Контур_35" data-name="Контур 35" d="M3512.261,1305.16h-2.113v-5.324a5.3,5.3,0,0,0-3.85-5.085l-.79-.223-.574,2.034.79.223a3.182,3.182,0,0,1,2.31,3.051v5.324h-3.8v-2.818h-2.114v2.818h-9.582v2.114h19.728Z" fill="#2c80b8"/>
    <path id="Контур_36" data-name="Контур 36" d="M3498.494,1294.746l4.405,1.243.575-2.034-4.318-1.218V1290a7.394,7.394,0,0,0,3.241-6.116V1280.9a7.4,7.4,0,1,0-14.8-.113v3.1a7.394,7.394,0,0,0,3.241,6.116v2.735l-7.142,2.014a5.3,5.3,0,0,0-3.85,5.085v5.324h-2.255v2.114h12.824v-2.114h-2.537v-2.818h-2.113v2.818h-3.8v-5.324a3.182,3.182,0,0,1,2.31-3.051l7.229-2.038a4.74,4.74,0,0,0,6.991,0Zm1.789-13.8v1.085l-2.221-2.938h-8.042a5.283,5.283,0,0,1,10.263,1.853Zm-10.569,2.911v-2.65h7.293l3.1,4.1a5.289,5.289,0,0,1-5.542,3.916A5.474,5.474,0,0,1,3489.714,1283.854Zm3.241,9.413v-2.274a7.347,7.347,0,0,0,4.087,0v2.274a2.629,2.629,0,0,1-4.087,0Z" fill="#2c80b8"/>
    <path id="Контур_37" data-name="Контур 37" d="M3500.546,1299.8l-2.977-.84.574-2.034,2.976.84Z" fill="#2c80b8"/>
    <path id="Контур_38" data-name="Контур 38" d="M3505.185,1298.906l-.574,2.034-2.034-.574.574-2.033Z" fill="#2c80b8"/>
    <path id="Контур_39" data-name="Контур 39" d="M3511.134,1276.131h2.114v2.114h-2.114Z" fill="#2c80b8"/>
    <path id="Контур_40" data-name="Контур 40" d="M3504.37,1316.433h2.114v2.114h-2.114Z" fill="#2c80b8"/>
    <path id="Контур_41" data-name="Контур 41" d="M3464.631,1293.323h2.114v2.114h-2.114Z" fill="#2c80b8"/>
  </g>
</svg>
