<svg xmlns="http://www.w3.org/2000/svg" width="25" height="25" viewBox="0 0 25 25">
  <path id="icon-callback" d="M2536.149,48.765a12.5,12.5,0,1,0,12.5,12.5A12.5,12.5,0,0,0,2536.149,48.765Zm-6.388,6.15a8.962,8.962,0,0,1,11.463-1.026,8.984,8.984,0,0,1,2.487,2.606V54.6h1.4v4.211h-4.175V57.4h1.685a7.56,7.56,0,0,0-14.071,3.86h-1.4A8.947,8.947,0,0,1,2529.761,54.915Zm5.836,6.937a9.714,9.714,0,0,0,1.122.989l1.2-1.171,2.321,2.325-.9.907a1.266,1.266,0,0,1-.914.4,1.646,1.646,0,0,1-.626-.135,8.047,8.047,0,0,1-3.322-2.189,7.2,7.2,0,0,1-2.2-3.307,1.446,1.446,0,0,1,.263-1.539l.907-.9,2.263,2.275-1.162,1.172A11.861,11.861,0,0,0,2535.6,61.852Zm6.921,5.765a8.986,8.986,0,0,1-13.965-1.582v1.9h-1.4V63.721h4.211v1.4h-1.72a7.582,7.582,0,0,0,14.106-3.86h1.4A8.924,8.924,0,0,1,2542.518,67.617Z" transform="translate(-2523.649 -48.765)" fill="#fff"/>
</svg>
