<svg xmlns="http://www.w3.org/2000/svg" width="72" height="50.449" viewBox="0 0 72 50.449">
  <g id="icon-whywe6" transform="translate(-539 -2446.633)">
    <path id="Контур_339" data-name="Контур 339" d="M610.074,2479.4a50.531,50.531,0,0,0-11.2-.992c2.16-5.466,2.6-12.056,1.3-19.645a1.2,1.2,0,0,0-1.387-.977c-.028.005-.056.01-.083.017a42.387,42.387,0,0,0-11.459,5.16,37.487,37.487,0,0,0-11.423-16.08,1.2,1.2,0,0,0-1.589.108c-5.322,5.414-8.88,10.975-10.622,16.56a42.512,42.512,0,0,0-12.33-5.75,1.2,1.2,0,0,0-1.453.877c-.006.028-.012.055-.017.083-1.3,7.588-.852,14.178,1.3,19.645a50.4,50.4,0,0,0-11.2.992,1.2,1.2,0,0,0-.84,1.613c5.215,13.058,15.38,16.066,23.64,16.066A39.518,39.518,0,0,0,575,2495.042a39.543,39.543,0,0,0,12.276,2.04c8.259,0,18.425-3.009,23.64-16.066a1.206,1.206,0,0,0-.841-1.616Zm-13.856-.862a31.584,31.584,0,0,0-12.593,3.48,1.17,1.17,0,0,0-.554.312h0a20.685,20.685,0,0,0-6.227,5.53,28.689,28.689,0,0,0-.611-6.6c1.44-6.092,5.142-11.279,11.04-15.429a41.721,41.721,0,0,1,10.76-5.324C599.058,2467.565,598.439,2473.618,596.218,2478.538Zm-21.04-29.078c2.113,1.871,7.729,7.4,10.014,14.936A29.025,29.025,0,0,0,575,2477.218a28.592,28.592,0,0,0-9.328-12.168C567.122,2459.843,570.3,2454.606,575.178,2449.46Zm-23.207,11.04a41.336,41.336,0,0,1,11.606,5.939h0a25.713,25.713,0,0,1,10.19,14.814,28.634,28.634,0,0,0-.612,6.6c-4.861-6.528-12.588-8.777-19.375-9.321-2.22-4.914-2.839-10.968-1.809-18.029Zm9.1,34.185c-8.985-.488-15.432-4.935-19.187-13.219,5.44-.927,25.057-3.13,31.526,11.577a36.3,36.3,0,0,1-12.339,1.645Zm27.853,0a36.377,36.377,0,0,1-12.339-1.646c6.468-14.7,26.084-12.5,31.532-11.573-3.761,8.284-10.208,12.731-19.193,13.222Z" fill="#2c80b8"/>
    <rect id="Прямоугольник_190" data-name="Прямоугольник 190" width="2.4" height="2.4" transform="translate(573.799 2455.368)" fill="#2c80b8"/>
    <rect id="Прямоугольник_191" data-name="Прямоугольник 191" width="2.4" height="2.4" transform="translate(573.799 2460.168)" fill="#2c80b8"/>
    <rect id="Прямоугольник_192" data-name="Прямоугольник 192" width="2.4" height="2.4" transform="translate(573.799 2464.968)" fill="#2c80b8"/>
    <path id="Контур_340" data-name="Контур 340" d="M553.4,2464.968a18.277,18.277,0,0,0,2.6,9.066l2-1.332a16.08,16.08,0,0,1-2.2-7.735Z" fill="#2c80b8"/>
    <path id="Контур_341" data-name="Контур 341" d="M596.6,2464.968h-2.4a15.968,15.968,0,0,1-2.2,7.734l2,1.332A18.277,18.277,0,0,0,596.6,2464.968Z" fill="#2c80b8"/>
  </g>
</svg>
