<svg xmlns="http://www.w3.org/2000/svg" width="72" height="65.237" viewBox="0 0 72 65.237">
  <g id="icon-whywe8" transform="translate(-539 -2730.373)">
    <path id="Контур_342" data-name="Контур 342" d="M598.673,2759.682a1.055,1.055,0,0,0-1.055,1.055v25.927a2.33,2.33,0,0,1-2.327,2.327H543.437a2.33,2.33,0,0,1-2.328-2.327v-33.891h40.655a1.054,1.054,0,0,0,0-2.109H541.109v-3.454a2.33,2.33,0,0,1,2.328-2.327h1.2v.072a3.31,3.31,0,0,0,6.619,0v-.072h29.381a1.055,1.055,0,0,0,0-2.11H551.255v-1.2a3.31,3.31,0,0,0-6.619,0v1.2h-1.2A4.441,4.441,0,0,0,539,2747.21v43.963a4.442,4.442,0,0,0,4.437,4.437h51.854a4.442,4.442,0,0,0,4.436-4.437v-30.436A1.054,1.054,0,0,0,598.673,2759.682Zm-51.927-18.109a1.2,1.2,0,1,1,2.4,0v3.382a1.2,1.2,0,1,1-2.4,0Zm48.545,51.927H543.437a2.33,2.33,0,0,1-2.328-2.327v-.734a4.412,4.412,0,0,0,2.328.662h51.854a4.408,4.408,0,0,0,2.327-.662v.734A2.33,2.33,0,0,1,595.291,2793.5Z" fill="#2c80b8"/>
    <path id="Контур_343" data-name="Контур 343" d="M597.546,2730.373A13.454,13.454,0,1,0,611,2743.828,13.47,13.47,0,0,0,597.546,2730.373Zm0,24.8a11.345,11.345,0,1,1,11.345-11.345A11.358,11.358,0,0,1,597.546,2755.173Z" fill="#2c80b8"/>
    <path id="Контур_344" data-name="Контур 344" d="M597.575,2739.246c1.354,0,2.3.744,2.3,1.411a1.055,1.055,0,1,0,2.109,0c0-1.691-1.421-3.067-3.382-3.427v-.166a1.054,1.054,0,0,0-2.109,0v.176a3.727,3.727,0,0,0-3.323,3.417c0,2.745,2.541,3.635,4.058,4.166,2.265.793,2.647,1.312,2.647,2.175,0,.668-.944,1.412-2.3,1.412s-2.3-.744-2.3-1.412a1.054,1.054,0,0,0-2.109,0,3.725,3.725,0,0,0,3.323,3.417v.177a1.054,1.054,0,0,0,2.109,0v-.166c1.961-.36,3.382-1.737,3.382-3.428,0-2.744-2.541-3.634-4.059-4.166-2.264-.793-2.646-1.312-2.646-2.175C595.277,2739.99,596.221,2739.246,597.575,2739.246Z" fill="#2c80b8"/>
    <path id="Контур_345" data-name="Контур 345" d="M549.073,2758.555a2.185,2.185,0,0,0-2.182,2.182v20.291a2.185,2.185,0,0,0,2.182,2.182h2.254a1.055,1.055,0,1,0,0-2.11h-2.254a.073.073,0,0,1-.073-.072v-5.146h8.6v5.218h-1.764a1.055,1.055,0,1,0,0,2.11h33.818a2.185,2.185,0,0,0,2.182-2.182v-20.291a2.185,2.185,0,0,0-2.182-2.182H587.4a1.055,1.055,0,0,0,0,2.109h2.255a.073.073,0,0,1,.072.073v5.145h-8.6v-5.218h1.763a1.055,1.055,0,1,0,0-2.109Zm21.345,15.218v-5.782h8.6v5.782Zm8.6,2.109v5.218h-8.6v-5.218Zm-10.71-2.109h-8.6v-5.782h8.6Zm-8.6-7.891v-5.218h8.6v5.218Zm-10.637-5.218H557.6v5.218H549v-5.145A.073.073,0,0,1,549.073,2760.664ZM549,2773.773v-5.782h8.6v5.782Zm10.71,2.109h8.6v5.218h-8.6v-5.218Zm29.944,5.218h-8.526v-5.218h8.6v5.146A.072.072,0,0,1,589.654,2781.1Zm.073-13.108v5.781h-8.6v-5.781Zm-10.708-2.11h-8.6v-5.218h8.6Z" fill="#2c80b8"/>
  </g>
</svg>
