<svg xmlns="http://www.w3.org/2000/svg" width="25" height="25" viewBox="0 0 25 25">
  <g id="icon-foot-phone" transform="translate(-3069.829 -5302.257)">
    <g id="Сгруппировать_61" data-name="Сгруппировать 61">
      <g id="Сгруппировать_60" data-name="Сгруппировать 60">
        <path id="Контур_100" data-name="Контур 100" d="M3091.167,5305.917a12.5,12.5,0,1,0,3.662,8.838A12.5,12.5,0,0,0,3091.167,5305.917Zm-3.431,13.753h1.141v0l-.752.629a3.331,3.331,0,0,1-3.146.9,11.091,11.091,0,0,1-3.217-1.441,15.42,15.42,0,0,1-4.433-4.346,11.664,11.664,0,0,1-1.425-2.884,3.333,3.333,0,0,1,.833-3.4l.742-.741a.528.528,0,0,1,.748,0l0,0,2.342,2.341a.53.53,0,0,1,0,.749h0l-1.375,1.375a1.12,1.12,0,0,0-.117,1.459,16.452,16.452,0,0,0,3.812,3.741,1.129,1.129,0,0,0,1.442-.125l1.329-1.35a.529.529,0,0,1,.749,0h0l2.346,2.35C3088.965,5319.127,3088.966,5319.462,3087.736,5319.67Z" fill="#fff"/>
      </g>
    </g>
  </g>
</svg>
