<svg xmlns="http://www.w3.org/2000/svg" width="63.116" height="72" viewBox="0 0 63.116 72">
  <g id="icon-help4" transform="translate(-2586.862 -2582.755)">
    <g id="Сгруппировать_49" data-name="Сгруппировать 49">
      <g id="Сгруппировать_48" data-name="Сгруппировать 48">
        <g id="Сгруппировать_47" data-name="Сгруппировать 47">
          <path id="Контур_36" data-name="Контур 36" d="M2619.589,2625.535h-2.338a1.17,1.17,0,0,1-1.169-1.169h-2.337a3.51,3.51,0,0,0,3.506,3.506v2.338h2.338v-2.338a3.506,3.506,0,0,0,0-7.012h-2.338a1.169,1.169,0,0,1,0-2.338h2.338a1.171,1.171,0,0,1,1.169,1.169h2.337a3.511,3.511,0,0,0-3.506-3.507v-2.337h-2.338v2.337a3.506,3.506,0,0,0,0,7.013h2.338a1.169,1.169,0,0,1,0,2.338Z" fill="#2c80b8"/>
          <path id="Контур_37" data-name="Контур 37" d="M2645,2609.977a12.856,12.856,0,1,0-19.223-16.211,28.913,28.913,0,0,0-3.853-.735v-1.392h3.6l-7.108-8.884-7.107,8.884h3.6v1.392a28.627,28.627,0,0,0-3.853.735,12.856,12.856,0,1,0-19.222,16.211,29.033,29.033,0,0,0,5.417,32.167l-2.257,7.521a3.954,3.954,0,0,0,3.787,5.09,3.975,3.975,0,0,0,3.8-2.868l1.292-4.528a29.114,29.114,0,0,0,29.076,0l1.294,4.529a3.971,3.971,0,0,0,3.8,2.866,3.954,3.954,0,0,0,3.787-5.09l-2.257-7.521a29.106,29.106,0,0,0,8.041-19.543l.718-.573-.715-.572A28.859,28.859,0,0,0,2645,2609.977Zm-15.42-17.456a31.575,31.575,0,0,1,13.094,9.318l1.8-1.5a33.961,33.961,0,0,0-12.785-9.508,10.488,10.488,0,0,1,15.214,12.816c-.352-.543-.716-1.079-1.094-1.6l-1.888,1.381c.6.824,1.165,1.69,1.688,2.573a10.494,10.494,0,0,1-1.7,1.825,29.533,29.533,0,0,0-15.828-13.358A10.432,10.432,0,0,1,2629.582,2592.521Zm-7.656,2.892a27.031,27.031,0,0,1,23.254,24.086l-2.7-2.165a24.7,24.7,0,0,0-20.549-19.571Zm9.291,27.784c.035-.386.06-.774.06-1.169s-.025-.783-.06-1.168H2641.8v-1.075l2.8,2.243-2.8,2.243V2623.2Zm-9.291-23.076a22.376,22.376,0,0,1,17.533,14.921v3.48h-8.68a12.893,12.893,0,0,0-8.853-8.853Zm-3.506-13.623,2.243,2.8h-1.074v19.929c-.386-.035-.774-.06-1.169-.06s-.783.025-1.169.06V2589.3h-1.074Zm0,25.011a10.52,10.52,0,1,1-10.519,10.519A10.531,10.531,0,0,1,2618.42,2611.509Zm-28.469-7.822a10.491,10.491,0,0,1,15.215-12.844A33.9,33.9,0,0,0,2589.951,2603.687Zm1.285,2.325a31.568,31.568,0,0,1,16.031-13.482,10.389,10.389,0,0,1,1.495,1.942,29.536,29.536,0,0,0-15.828,13.359A10.5,10.5,0,0,1,2591.236,2606.012Zm9.106,45.233a1.628,1.628,0,0,1-1.556,1.173,1.617,1.617,0,0,1-1.547-2.081l1.911-6.37a29.4,29.4,0,0,0,2.673,2.092Zm39.259-.908a1.617,1.617,0,0,1-1.547,2.081,1.626,1.626,0,0,1-1.555-1.172l-1.482-5.187a29.223,29.223,0,0,0,2.673-2.092Zm-21.181-1.426a26.863,26.863,0,0,1-3.506-53.5v2.349a24.525,24.525,0,0,0-15.561,39.725l1.815-1.473a22.19,22.19,0,0,1,13.746-35.891v9.549a12.851,12.851,0,1,0,15.865,15.865h8.68v3.527a22.184,22.184,0,0,1-36.793,8.616l-1.66,1.647a24.513,24.513,0,0,0,41.465-12.6l2.71-2.168A26.919,26.919,0,0,1,2618.42,2648.911Z" fill="#2c80b8"/>
        </g>
      </g>
    </g>
  </g>
</svg>
