<svg xmlns="http://www.w3.org/2000/svg" width="25" height="25" viewBox="0 0 25 25">
  <g id="icon-tel" transform="translate(-3071 -194.21)">
    <g id="Сгруппировать_9" data-name="Сгруппировать 9">
      <g id="Сгруппировать_8" data-name="Сгруппировать 8">
        <path id="Контур_13" data-name="Контур 13" d="M3092.338,197.87a12.5,12.5,0,1,0,3.662,8.837A12.5,12.5,0,0,0,3092.338,197.87Zm-3.431,13.752,1.141,0v0l-.752.629a3.336,3.336,0,0,1-3.146.9,11.1,11.1,0,0,1-3.217-1.442,15.416,15.416,0,0,1-4.433-4.346,11.67,11.67,0,0,1-1.425-2.883,3.334,3.334,0,0,1,.833-3.4l.742-.742a.529.529,0,0,1,.748,0l0,0,2.342,2.342a.528.528,0,0,1,0,.748v0l-1.375,1.375a1.12,1.12,0,0,0-.117,1.458,16.412,16.412,0,0,0,3.813,3.742,1.129,1.129,0,0,0,1.441-.125l1.329-1.35a.53.53,0,0,1,.749,0v0l2.346,2.35C3090.136,211.08,3090.137,211.415,3088.907,211.622Z" fill="#fff"/>
      </g>
    </g>
  </g>
</svg>
