<svg xmlns="http://www.w3.org/2000/svg" width="72" height="72" viewBox="0 0 72 72">
  <g id="icon-help1" transform="translate(-1706.991 -2581.906)">
    <g id="Сгруппировать_52" data-name="Сгруппировать 52">
      <path id="Контур_38" data-name="Контур 38" d="M1746.08,2602.4l-3.089-5.444-3.089,5.444-6.132,1.255,4.223,4.62-.7,6.22,5.7-2.588,5.7,2.588-.7-6.22,4.222-4.62Zm.1,8.637-3.186-1.447-3.187,1.447.392-3.478-2.361-2.583,3.428-.7,1.728-3.044,1.727,3.044,3.428.7-2.361,2.583Z" fill="#2c80b8"/>
      <path id="Контур_39" data-name="Контур 39" d="M1763.03,2590.344v-2.11h2.109v-6.328h-33.75v2.109h31.641v2.11h-40.078v-2.11h6.328v-2.109h-8.438v6.328h2.11v2.11h-15.961V2607.9a8.191,8.191,0,0,0,2.705,6.127,12.128,12.128,0,0,0,6.149,2.893l11.753,2.042a20.266,20.266,0,0,0,8.192,5.9,4.217,4.217,0,0,0,1.9,7.059c-.154,2.489-1.021,6.145-4.485,8.282h-6.685l-2.512,5.024v8.687h27.422V2651.8h-25.313v-6.08l1.707-3.413h30.337l1.707,3.413v6.08h-6.328v2.109h8.437v-8.687l-2.512-5.024h-6.685c-3.464-2.137-4.331-5.793-4.485-8.282a4.216,4.216,0,0,0,1.9-7.058,20.263,20.263,0,0,0,8.192-5.9l11.753-2.042a12.128,12.128,0,0,0,6.15-2.893,8.194,8.194,0,0,0,2.7-6.127v-17.553Zm0,6.328h9.632V2607.9c0,2.1-3.24,2.721-3.609,2.785l-6.866,1.193a19.87,19.87,0,0,0,.843-5.711Zm-39.236,15.2-6.865-1.193c-.37-.064-3.61-.688-3.61-2.785v-11.225h9.633v9.492a19.9,19.9,0,0,0,.842,5.711ZM1709.1,2607.9v-15.444h13.852v2.109h-11.743V2607.9c0,2.9,2.768,4.413,5.358,4.863l8.067,1.4a20.094,20.094,0,0,0,1.221,2.353l-9.649-1.676c-3.278-.57-7.106-2.73-7.106-6.942Zm27.409,32.3a12.872,12.872,0,0,0,3.284-8.14h6.4a12.866,12.866,0,0,0,3.283,8.14Zm10.7-10.25h-8.438a2.109,2.109,0,1,1,0-4.218h8.438a2.109,2.109,0,1,1,0,4.218Zm-.126-6.328H1738.9a18.081,18.081,0,0,1-13.836-17.453v-17.93h35.859v17.93A18.081,18.081,0,0,1,1747.084,2623.617Zm29.8-15.72c0,4.212-3.828,6.372-7.106,6.941l-9.649,1.677a20.1,20.1,0,0,0,1.221-2.353l8.067-1.4c2.59-.45,5.358-1.964,5.358-4.863v-13.335H1763.03v-2.109h13.851Z" fill="#2c80b8"/>
      <path id="Контур_40" data-name="Контур 40" d="M1756.7,2594.562h2.109v2.11H1756.7Z" fill="#2c80b8"/>
      <path id="Контур_41" data-name="Контур 41" d="M1756.7,2590.344h2.109v2.109H1756.7Z" fill="#2c80b8"/>
      <path id="Контур_42" data-name="Контур 42" d="M1754.592,2644.413h2.11v2.11h-2.11Z" fill="#2c80b8"/>
      <path id="Контур_43" data-name="Контур 43" d="M1737.717,2646h10.547v2.109h-10.547Z" fill="#2c80b8"/>
    </g>
  </g>
</svg>
