<svg xmlns="http://www.w3.org/2000/svg" width="72" height="72.001" viewBox="0 0 72 72.001">
  <g id="icon-whywe1" transform="translate(-3165.72 -1258.312)">
    <path id="Контур_17" data-name="Контур 17" d="M3236.52,1275.112h-3.6v-13.2a3.6,3.6,0,0,0-3.6-3.6h-19.2a3.6,3.6,0,0,0-3.6,3.6v13.2h-9.6v-10.8a1.2,1.2,0,0,0-1.2-1.2h-1.2v-3.6a1.2,1.2,0,0,0-1.2-1.2h-4.8a1.2,1.2,0,0,0-1.2,1.2v3.6h-1.2a1.2,1.2,0,0,0-1.2,1.2v3.6h-3.6a1.2,1.2,0,0,0-1.2,1.2v6h-13.2a1.2,1.2,0,0,0-1.2,1.2v36a1.2,1.2,0,0,0,1.2,1.2h18v3.6a1.215,1.215,0,0,0,.085.445l4.8,12a1.2,1.2,0,0,0,2.23,0l4.8-12a1.21,1.21,0,0,0,.085-.445v-3.6h39.6a1.2,1.2,0,0,0,1.2-1.2v-36A1.2,1.2,0,0,0,3236.52,1275.112Zm-27.6-13.2a1.2,1.2,0,0,1,1.2-1.2h19.2a1.2,1.2,0,0,1,1.2,1.2v28.8a1.2,1.2,0,0,1-1.2,1.2h-19.2a1.2,1.2,0,0,1-1.2-1.2Zm-21.6,54v-45.6h7.2v45.6Zm2.4-55.2h2.4v2.4h-2.4Zm-2.4,4.8h7.2v2.4h-7.2Zm-4.8,4.8h2.4v4.8h-2.4Zm-14.4,40.8v-33.6h12v8.4h2.4v-8.4h2.4v33.6Zm22.8,14.769-3.028-7.569h6.056Zm44.4-14.769h-38.4v-33.6h9.6v13.2a3.6,3.6,0,0,0,3.6,3.6h19.2a3.6,3.6,0,0,0,3.6-3.6h0v-13.2h2.4Z" fill="#2c80b8"/>
    <path id="Контур_18" data-name="Контур 18" d="M3171.72,1287.112h4.8a1.2,1.2,0,0,0,1.2-1.2v-4.8a1.2,1.2,0,0,0-1.2-1.2h-4.8a1.2,1.2,0,0,0-1.2,1.2v4.8A1.2,1.2,0,0,0,3171.72,1287.112Zm1.2-4.8h2.4v2.4h-2.4Z" fill="#2c80b8"/>
    <path id="Контур_19" data-name="Контур 19" d="M3177.72,1289.512h4.8v2.4h-4.8Z" fill="#2c80b8"/>
    <path id="Контур_20" data-name="Контур 20" d="M3170.52,1289.512h4.8v2.4h-4.8Z" fill="#2c80b8"/>
    <path id="Контур_21" data-name="Контур 21" d="M3211.32,1306.312h4.8v2.4h-4.8Z" fill="#2c80b8"/>
    <path id="Контур_22" data-name="Контур 22" d="M3218.52,1306.312h14.4v2.4h-14.4Z" fill="#2c80b8"/>
    <path id="Контур_23" data-name="Контур 23" d="M3221.586,1303.634a1.2,1.2,0,0,0,1.535,0l2.119-1.762,2.116,1.761,1.536-1.845-2.88-2.4a1.2,1.2,0,0,0-1.535,0l-2.117,1.764-2.111-1.761a1.2,1.2,0,0,0-1.537,0l-2.112,1.761-2.108-1.76-1.539,1.844,2.88,2.4a1.2,1.2,0,0,0,1.539,0l2.108-1.764Z" fill="#2c80b8"/>
    <path id="Контур_24" data-name="Контур 24" d="M3170.52,1294.312h12v2.4h-12Z" fill="#2c80b8"/>
    <path id="Контур_25" data-name="Контур 25" d="M3212.52,1270.312h14.4a1.2,1.2,0,0,0,1.2-1.2v-4.8a1.2,1.2,0,0,0-1.2-1.2h-14.4a1.2,1.2,0,0,0-1.2,1.2v4.8A1.2,1.2,0,0,0,3212.52,1270.312Zm1.2-4.8h12v2.4h-12Z" fill="#2c80b8"/>
    <path id="Контур_26" data-name="Контур 26" d="M3212.52,1279.912h4.8a1.2,1.2,0,0,0,1.2-1.2v-4.8a1.2,1.2,0,0,0-1.2-1.2h-4.8a1.2,1.2,0,0,0-1.2,1.2v4.8A1.2,1.2,0,0,0,3212.52,1279.912Zm1.2-4.8h2.4v2.4h-2.4Z" fill="#2c80b8"/>
    <path id="Контур_27" data-name="Контур 27" d="M3226.92,1272.712h-4.8a1.2,1.2,0,0,0-1.2,1.2v4.8a1.2,1.2,0,0,0,1.2,1.2h4.8a1.2,1.2,0,0,0,1.2-1.2v-4.8A1.2,1.2,0,0,0,3226.92,1272.712Zm-1.2,4.8h-2.4v-2.4h2.4Z" fill="#2c80b8"/>
    <path id="Контур_28" data-name="Контур 28" d="M3226.92,1282.312h-4.8a1.2,1.2,0,0,0-1.2,1.2v4.8a1.2,1.2,0,0,0,1.2,1.2h4.8a1.2,1.2,0,0,0,1.2-1.2v-4.8A1.2,1.2,0,0,0,3226.92,1282.312Zm-1.2,4.8h-2.4v-2.4h2.4Z" fill="#2c80b8"/>
    <path id="Контур_29" data-name="Контур 29" d="M3212.52,1289.512h4.8a1.2,1.2,0,0,0,1.2-1.2v-4.8a1.2,1.2,0,0,0-1.2-1.2h-4.8a1.2,1.2,0,0,0-1.2,1.2v4.8A1.2,1.2,0,0,0,3212.52,1289.512Zm1.2-4.8h2.4v2.4h-2.4Z" fill="#2c80b8"/>
  </g>
</svg>
