<svg xmlns="http://www.w3.org/2000/svg" width="72" height="70.635" viewBox="0 0 72 70.635">
  <g id="icon-whywe4" transform="translate(-3458.969 -1556.61)">
    <g id="Сгруппировать_23" data-name="Сгруппировать 23">
      <g id="Сгруппировать_22" data-name="Сгруппировать 22">
        <g id="Сгруппировать_21" data-name="Сгруппировать 21">
          <path id="Контур_42" data-name="Контур 42" d="M3482.633,1605.133c2.955,4.167,5.906,7.893,7.861,10.293.285.35.551.674.81.986h-6.231a.6.6,0,0,0-.453.206,1.244,1.244,0,0,0,.783,2.185h19.465a.607.607,0,0,0,.453-.206,1.245,1.245,0,0,0-.783-2.185h-5.9c.258-.312.525-.637.811-.986,1.954-2.392,4.9-6.126,7.859-10.293a104.946,104.946,0,0,0,7.9-12.733c2.442-4.8,3.681-8.777,3.681-11.834a23.9,23.9,0,0,0-7-16.935,1.2,1.2,0,1,0-1.692,1.69,21.517,21.517,0,0,1,6.305,15.245c0,2.677-1.151,6.293-3.42,10.748a102.807,102.807,0,0,1-7.721,12.438c-2.916,4.113-5.83,7.8-7.762,10.165-.642.787-1.22,1.483-1.712,2.071a1.211,1.211,0,0,1-1.823,0c-.493-.588-1.07-1.284-1.712-2.071-1.932-2.367-4.846-6.051-7.762-10.165a102.807,102.807,0,0,1-7.721-12.438c-2.272-4.455-3.42-8.071-3.42-10.748a21.532,21.532,0,0,1,29.91-19.865,1.2,1.2,0,0,0,.934-2.2,23.928,23.928,0,0,0-33.236,22.068c0,3.057,1.239,7.038,3.681,11.84A105.02,105.02,0,0,0,3482.633,1605.133Z" fill="#2c80b8"/>
          <path id="Контур_43" data-name="Контур 43" d="M3494.97,1569.6a1.2,1.2,0,1,0,0-2.4,12.005,12.005,0,1,0,8.489,3.516,1.2,1.2,0,1,0-1.7,1.7,9.605,9.605,0,1,1-6.792-2.813Z" fill="#2c80b8"/>
          <path id="Контур_44" data-name="Контур 44" d="M3530.518,1621.93l-7.38-13.2a3.728,3.728,0,0,0-3.265-1.885h-8.5a1.225,1.225,0,0,0-1.239,1.12,1.2,1.2,0,0,0,1.194,1.271h8.573a1.335,1.335,0,0,1,1.174.656l7.385,13.214a1.081,1.081,0,0,1-.011,1.11,1.319,1.319,0,0,1-1.162.637h-64.629a1.322,1.322,0,0,1-1.162-.637,1.081,1.081,0,0,1-.011-1.11l7.386-13.214a1.332,1.332,0,0,1,1.172-.656h8.528a1.225,1.225,0,0,0,1.239-1.12,1.2,1.2,0,0,0-1.193-1.271h-8.547a3.733,3.733,0,0,0-3.268,1.885l-7.379,13.2a3.479,3.479,0,0,0,.038,3.493,3.7,3.7,0,0,0,3.231,1.822h64.56a3.7,3.7,0,0,0,3.231-1.822A3.481,3.481,0,0,0,3530.518,1621.93Z" fill="#2c80b8"/>
          <path id="Контур_45" data-name="Контур 45" d="M3518.957,1613.874a1.225,1.225,0,0,0-1.239-1.12h-4.737a1.2,1.2,0,0,0-.664.2l-3.587,2.391a1.2,1.2,0,0,0,1.327,1.99l3.283-2.191h4.424A1.2,1.2,0,0,0,3518.957,1613.874Z" fill="#2c80b8"/>
          <path id="Контур_46" data-name="Контур 46" d="M3511.842,1622.461h9.477a1.226,1.226,0,0,0,1.239-1.12,1.2,1.2,0,0,0-1.194-1.271H3511.8a1.2,1.2,0,0,0-1.194,1.271A1.226,1.226,0,0,0,3511.842,1622.461Z" fill="#2c80b8"/>
          <path id="Контур_47" data-name="Контур 47" d="M3480.547,1617.538a1.2,1.2,0,0,0,1.2-1.132,1.223,1.223,0,0,0-.561-1.079l-3.558-2.372a1.205,1.205,0,0,0-.665-.2h-4.739a1.226,1.226,0,0,0-1.239,1.12,1.2,1.2,0,0,0,1.194,1.271h4.425l3.286,2.191A1.2,1.2,0,0,0,3480.547,1617.538Z" fill="#2c80b8"/>
          <path id="Контур_48" data-name="Контур 48" d="M3468.576,1620.07a1.2,1.2,0,0,0-1.193,1.271,1.225,1.225,0,0,0,1.239,1.12h9.476a1.225,1.225,0,0,0,1.239-1.12,1.2,1.2,0,0,0-1.193-1.271Z" fill="#2c80b8"/>
        </g>
      </g>
    </g>
  </g>
</svg>
