<svg xmlns="http://www.w3.org/2000/svg" width="58.065" height="72" viewBox="0 0 58.065 72">
  <g id="icon-help2" transform="translate(-2004.983 -2580.102)">
    <g id="Сгруппировать_55" data-name="Сгруппировать 55">
      <path id="Контур_44" data-name="Контур 44" d="M2059.564,2580.1h-16.258a3.488,3.488,0,0,0-3.484,3.484v2.322a4.646,4.646,0,0,0,0,9.291V2601h9.29v-2.322a2.323,2.323,0,0,1,4.646,0V2601h5.806a3.488,3.488,0,0,0,3.484-3.484v-13.935A3.488,3.488,0,0,0,2059.564,2580.1Zm1.161,17.419a1.163,1.163,0,0,1-1.161,1.162h-3.484a4.645,4.645,0,1,0-9.29,0h-4.645v-5.807h-2.323a2.323,2.323,0,0,1,0-4.645h2.323v-4.645a1.162,1.162,0,0,1,1.161-1.161h16.258a1.162,1.162,0,0,1,1.161,1.161Z" fill="#2c80b8"/>
      <path id="Контур_45" data-name="Контур 45" d="M2039.822,2603.328a4.649,4.649,0,0,0-4.645,4.645h-4.645v-5.806h-2.323a2.323,2.323,0,0,1,0-4.646h2.323V2587.07h-3.114a22.434,22.434,0,0,0-14.206,39.8l4.546,3.72v3.148a17.139,17.139,0,0,1,0,7.914,3.476,3.476,0,0,0,2.385,3.29,8.124,8.124,0,0,0,16.133,0,21.009,21.009,0,0,1,4.707-7.935,3.479,3.479,0,0,0-2.322-3.27v-3.148l4.545-3.72a22.349,22.349,0,0,0,8.229-17.362v-1.532h-6.968A4.649,4.649,0,0,0,2039.822,2603.328Zm-12.4-13.936h.791v5.807a4.645,4.645,0,0,0,0,9.29v3.484h-4.645a4.645,4.645,0,1,0-9.29,0h-6.91A20.139,20.139,0,0,1,2027.418,2589.392Zm-12.736,35.679a20.03,20.03,0,0,1-7.36-14.775h9.274v-2.323a2.323,2.323,0,1,1,4.645,0v2.323h6.968v4.645a4.645,4.645,0,0,0,0,9.29v9.29h-8.129v-4.034Zm13.527,24.708a5.817,5.817,0,0,1-5.689-4.645H2033.9A5.816,5.816,0,0,1,2028.209,2649.779Zm6.968-6.967h-13.936a1.161,1.161,0,0,1,0-2.323h13.936a1.161,1.161,0,0,1,0,2.323Zm2.323-4.645h-18.581a1.161,1.161,0,0,1,0-2.323H2037.5a1.161,1.161,0,0,1,0,2.323Zm4.236-13.1-5.4,4.416v4.034h-5.806v-11.613h-2.323a2.323,2.323,0,0,1,0-4.645h2.323V2610.3h6.968v-2.323a2.323,2.323,0,1,1,4.645,0v2.323h6.951A20.027,20.027,0,0,1,2041.736,2625.071Z" fill="#2c80b8"/>
    </g>
  </g>
</svg>
