<svg xmlns="http://www.w3.org/2000/svg" width="72" height="60.387" viewBox="0 0 72 60.387">
  <g id="icon-help3" transform="translate(-2288.275 -2585.682)">
    <path id="Контур_46" data-name="Контур 46" d="M2340.533,2634.456a3.484,3.484,0,1,0,3.484,3.484A3.489,3.489,0,0,0,2340.533,2634.456Zm0,4.645a1.161,1.161,0,1,1,1.161-1.161A1.163,1.163,0,0,1,2340.533,2639.1Z" fill="#2c80b8"/>
    <path id="Контур_47" data-name="Контур 47" d="M2308.017,2634.456a3.484,3.484,0,1,0,3.483,3.484A3.489,3.489,0,0,0,2308.017,2634.456Zm0,4.645a1.161,1.161,0,1,1,1.161-1.161A1.163,1.163,0,0,1,2308.017,2639.1Z" fill="#2c80b8"/>
    <path id="Контур_48" data-name="Контур 48" d="M2356.436,2625.837l-15.421-2.722a3.472,3.472,0,0,1-1.859-.967l-5.733-5.734a5.772,5.772,0,0,0-4.1-1.7h-24.785a3.48,3.48,0,0,0-2.646,1.217l-5.134,5.99-1.861-3.723h-6.617v2.323h5.181l1.161,2.322h-1.7a4.65,4.65,0,0,0-4.645,4.645v9.291a4.649,4.649,0,0,0,4.645,4.645h7.763a8.17,8.17,0,0,0,1.655,2.323h-14.063v2.322h72v-2.322H2346.21a8.152,8.152,0,0,0,1.655-2.323h8.926a3.489,3.489,0,0,0,3.484-3.484v-7.528A4.639,4.639,0,0,0,2356.436,2625.837Zm1.429,3.974h-2.655a1.907,1.907,0,0,1-1.716-1.06l-.59-1.179,3.129.552A2.313,2.313,0,0,1,2357.865,2629.811Zm-54.214-12.369a1.161,1.161,0,0,1,.882-.4h24.785a3.5,3.5,0,0,1,2.463,1.021l5.733,5.733a5.79,5.79,0,0,0,3.1,1.612l9.446,1.666,1.359,2.721a4.22,4.22,0,0,0,3.794,2.344h2.742v2.322h-10.086a8.108,8.108,0,0,0-13.14-2.194v-1.77l-2.322-2.323v-5.326h-2.647l-1.161-3.484h-22.3l-.348.436a22.437,22.437,0,0,0-4.9,13.968v.012c-.132.22-.255.448-.366.681H2290.6v-4.645h4.2l2.449-4.9ZM2332.5,2639.1h-16.444a7.292,7.292,0,0,0,0-2.322H2332.5a7.292,7.292,0,0,0,0,2.322Zm-2.416-13.935v2.322H2326.6a1.161,1.161,0,0,1,0-2.322Zm-3.484-2.323a3.48,3.48,0,0,0-3.27,2.323h-17.995a19.85,19.85,0,0,1,2.093-3.484h19.5l.387,1.161Zm-22.21,4.645h18.94a3.479,3.479,0,0,0,3.27,2.323h4.164l1.643,1.642v3H2315.35a8.1,8.1,0,0,0-11.79-3.306A20.259,20.259,0,0,1,2304.387,2627.488Zm-11.467-2.322h1.6l-1.161,2.322H2290.6A2.325,2.325,0,0,1,2292.92,2625.166Zm0,13.935a2.325,2.325,0,0,1-2.323-2.322h9.383a7.292,7.292,0,0,0,0,2.322Zm9.29-1.161a5.807,5.807,0,1,1,5.807,5.807A5.813,5.813,0,0,1,2302.21,2637.94Zm11.484,5.807a8.156,8.156,0,0,0,1.655-2.323H2333.2a8.176,8.176,0,0,0,1.655,2.323Zm26.839,0a5.807,5.807,0,1,1,5.806-5.807A5.814,5.814,0,0,1,2340.533,2643.747Zm16.258-4.646h-8.222a7.292,7.292,0,0,0,0-2.322h9.383v1.161A1.163,1.163,0,0,1,2356.791,2639.1Z" fill="#2c80b8"/>
    <path id="Контур_49" data-name="Контур 49" d="M2288.275,2610.069h2.322v2.323h-2.322Z" fill="#2c80b8"/>
    <path id="Контур_50" data-name="Контур 50" d="M2292.92,2610.069h18.58v2.323h-18.58Z" fill="#2c80b8"/>
    <path id="Контур_51" data-name="Контур 51" d="M2292.92,2605.424h2.322v2.323h-2.322Z" fill="#2c80b8"/>
    <path id="Контур_52" data-name="Контур 52" d="M2297.565,2605.424h18.581v2.323h-18.581Z" fill="#2c80b8"/>
    <path id="Контур_53" data-name="Контур 53" d="M2297.565,2600.779h2.322v2.322h-2.322Z" fill="#2c80b8"/>
    <path id="Контур_54" data-name="Контур 54" d="M2302.21,2600.779h18.581v2.322H2302.21Z" fill="#2c80b8"/>
    <path id="Контур_55" data-name="Контур 55" d="M2345.178,2615.876a15.1,15.1,0,1,0-15.1-15.1A15.115,15.115,0,0,0,2345.178,2615.876Zm-8.942-5.991a11.194,11.194,0,0,1,17.885,0,12.735,12.735,0,0,1-17.885,0Zm7.781-7.945v-.613a1.187,1.187,0,0,1,.121-.518l1.04-2.079,1.039,2.078a1.179,1.179,0,0,1,.122.519v.613a1.161,1.161,0,1,1-2.322,0Zm-6.2-11.585,1.708,2.959,2.012-1.161-1.709-2.96a12.672,12.672,0,0,1,4.187-1.129v3.425h2.322v-3.425a12.65,12.65,0,0,1,4.187,1.13l-1.709,2.96,2.012,1.161,1.708-2.959a12.874,12.874,0,0,1,3.065,3.065l-2.959,1.708,1.161,2.012,2.959-1.709a12.676,12.676,0,0,1,1.13,4.187h-3.425v2.322h3.425a12.687,12.687,0,0,1-2.244,6.133,13.249,13.249,0,0,0-7.35-4.617,3.445,3.445,0,0,0,.363-1.517v-.613a3.508,3.508,0,0,0-.367-1.558l-3.117-6.232-3.117,6.232a3.5,3.5,0,0,0-.367,1.558v.613a3.436,3.436,0,0,0,.362,1.516,13.256,13.256,0,0,0-7.35,4.617,12.686,12.686,0,0,1-2.243-6.133h3.424v-2.322h-3.424a12.653,12.653,0,0,1,1.13-4.187l2.958,1.709,1.162-2.012-2.959-1.708A12.893,12.893,0,0,1,2337.819,2590.355Z" fill="#2c80b8"/>
  </g>
</svg>
