<svg xmlns="http://www.w3.org/2000/svg" width="190.356" height="41.209" viewBox="0 0 190.356 41.209">
  <g id="Сгруппировать_368" data-name="Сгруппировать 368" transform="translate(-1612.17 -3440.259)">
    <g id="Сгруппировать_227" data-name="Сгруппировать 227">
      <path id="Контур_223" data-name="Контур 223" d="M1627.074,3459.848a9.721,9.721,0,0,1,3.193-7.495,11.418,11.418,0,0,1,15.545,0,10.324,10.324,0,0,1,0,14.99,10.774,10.774,0,0,1-7.788,3.053,10.655,10.655,0,0,1-7.772-3.053A9.682,9.682,0,0,1,1627.074,3459.848Zm16.533,0a5.537,5.537,0,0,0-1.588-4.087,5.819,5.819,0,0,0-7.973-.016,5.608,5.608,0,0,0-1.542,4.1,5.71,5.71,0,0,0,1.542,4.132,5.9,5.9,0,0,0,7.988-.03A5.552,5.552,0,0,0,1643.607,3459.848Z" fill="#fff"/>
      <path id="Контур_224" data-name="Контур 224" d="M1671.4,3470.026H1665.1l-7.742-10.148v10.148h-5.305V3449.67h5.305v9.221l6.724-9.221h6.169l-7,9.684Z" fill="#fff"/>
      <path id="Контур_225" data-name="Контур 225" d="M1682.654,3470.026V3449.67h7.433a7.132,7.132,0,0,1,5,1.742,6.221,6.221,0,0,1-.015,8.99,7.1,7.1,0,0,1-4.981,1.759h-4.164v7.865Zm3.269-10.764h4.1a3.732,3.732,0,0,0,2.654-.9,3.175,3.175,0,0,0,.956-2.436,3.226,3.226,0,0,0-.956-2.452,3.7,3.7,0,0,0-2.654-.91h-4.1Z" fill="#fff"/>
      <path id="Контур_226" data-name="Контур 226" d="M1709.057,3454.882v2.869h-.988a4.616,4.616,0,0,0-3.208,1.109,3.941,3.941,0,0,0-1.234,3.085v8.081h-3.237v-15.144h3.022v1.974a5.38,5.38,0,0,1,4.411-2.129A5.075,5.075,0,0,1,1709.057,3454.882Z" fill="#fff"/>
      <path id="Контур_227" data-name="Контур 227" d="M1710.691,3462.438a7.384,7.384,0,0,1,2.328-5.6,8.157,8.157,0,0,1,11.366.015,7.859,7.859,0,0,1,0,11.2,7.629,7.629,0,0,1-5.706,2.313,7.948,7.948,0,0,1-7.988-7.927Zm12.707.031a4.941,4.941,0,0,0-1.357-3.531,4.619,4.619,0,0,0-6.693,0,4.941,4.941,0,0,0-1.357,3.531,4.863,4.863,0,0,0,1.342,3.5,4.693,4.693,0,0,0,6.708-.015A4.849,4.849,0,0,0,1723.4,3462.469Z" fill="#fff"/>
      <path id="Контур_228" data-name="Контур 228" d="M1739.437,3467.281v2.745a13.41,13.41,0,0,1-2.684.339,5.917,5.917,0,0,1-4.117-1.326,5.056,5.056,0,0,1-1.465-3.948v-7.4H1728.7v-2.807h2.467V3450.9h3.269v3.979h4.5v2.807h-4.5v7.125a2.485,2.485,0,0,0,.725,2.019,3.507,3.507,0,0,0,2.267.6Q1737.956,3467.435,1739.437,3467.281Z" fill="#fff"/>
      <path id="Контур_229" data-name="Контур 229" d="M1756.029,3463.517h-11.287a4.511,4.511,0,0,0,1.649,2.916,5.124,5.124,0,0,0,3.285,1.064,6.477,6.477,0,0,0,4.41-1.79l1.543,2.222a8.481,8.481,0,0,1-6.046,2.436,8.017,8.017,0,0,1-5.8-2.267,8,8,0,0,1-.061-11.257,7.34,7.34,0,0,1,5.551-2.3,6.81,6.81,0,0,1,5,1.989,6.7,6.7,0,0,1,2,4.95A9.7,9.7,0,0,1,1756.029,3463.517Zm-11.226-2.528h8.234a3.544,3.544,0,0,0-1.141-2.7,3.95,3.95,0,0,0-2.744-1,4.194,4.194,0,0,0-2.791,1A4.724,4.724,0,0,0,1744.8,3460.989Z" fill="#fff"/>
      <path id="Контур_230" data-name="Контур 230" d="M1759.021,3462.438a7.367,7.367,0,0,1,2.344-5.6,7.613,7.613,0,0,1,5.676-2.3,6.982,6.982,0,0,1,6.384,3.516l-2.283,1.789a4.792,4.792,0,0,0-4.071-2.313,4.505,4.505,0,0,0-3.393,1.418,5.2,5.2,0,0,0,0,7,4.5,4.5,0,0,0,3.393,1.418,4.909,4.909,0,0,0,4.071-2.282l2.283,1.758a7.205,7.205,0,0,1-2.683,2.591,7.494,7.494,0,0,1-3.7.925,7.771,7.771,0,0,1-5.692-2.313A7.62,7.62,0,0,1,1759.021,3462.438Z" fill="#fff"/>
      <path id="Контур_231" data-name="Контур 231" d="M1786.009,3467.281v2.745a13.4,13.4,0,0,1-2.683.339,5.918,5.918,0,0,1-4.118-1.326,5.056,5.056,0,0,1-1.465-3.948v-7.4h-2.467v-2.807h2.467V3450.9h3.27v3.979h4.5v2.807h-4.5v7.125a2.488,2.488,0,0,0,.724,2.019,3.508,3.508,0,0,0,2.268.6Q1784.527,3467.435,1786.009,3467.281Z" fill="#fff"/>
    </g>
    <path id="Контур_232" data-name="Контур 232" d="M1781.922,3481.468H1632.774a20.6,20.6,0,0,1,0-41.209h149.148a20.6,20.6,0,0,1,0,41.209Zm-149.148-38.4a17.8,17.8,0,0,0,0,35.593h149.148a17.8,17.8,0,0,0,0-35.593Z" fill="#fff"/>
  </g>
</svg>
