<svg xmlns="http://www.w3.org/2000/svg" width="190.357" height="54.906" viewBox="0 0 190.357 54.906">
  <defs>
    <style>
      .cls-1, .cls-2 {
        fill: #fff;
      }

      .cls-2 {
        font-size: 9.227px;
        font-family: CeraPro-Bold, Cera Pro;
        font-weight: 700;
      }
    </style>
  </defs>
  <g id="Сгруппировать_55" data-name="Сгруппировать 55" transform="translate(-3072.17 -5217.277)">
    <g id="Сгруппировать_54" data-name="Сгруппировать 54">
      <path id="Контур_89" data-name="Контур 89" class="cls-1" d="M3087.075,5236.866a9.716,9.716,0,0,1,3.193-7.5,11.416,11.416,0,0,1,15.544,0,10.324,10.324,0,0,1,0,14.99,10.769,10.769,0,0,1-7.787,3.053,10.648,10.648,0,0,1-7.772-3.053A9.678,9.678,0,0,1,3087.075,5236.866Zm16.532,0a5.541,5.541,0,0,0-1.587-4.087,5.82,5.82,0,0,0-7.974-.016,5.609,5.609,0,0,0-1.542,4.1,5.711,5.711,0,0,0,1.542,4.132,5.9,5.9,0,0,0,7.989-.03A5.55,5.55,0,0,0,3103.607,5236.866Z"/>
      <path id="Контур_90" data-name="Контур 90" class="cls-1" d="M3131.4,5247.044H3125.1l-7.742-10.148v10.148h-5.3v-20.356h5.3v9.221l6.725-9.221h6.168l-7,9.685Z"/>
      <path id="Контур_91" data-name="Контур 91" class="cls-1" d="M3142.654,5247.044v-20.356h7.434a7.133,7.133,0,0,1,5,1.742,6.222,6.222,0,0,1-.015,8.99,7.1,7.1,0,0,1-4.981,1.759h-4.165v7.865Zm3.269-10.764h4.1a3.729,3.729,0,0,0,2.653-.9,3.174,3.174,0,0,0,.956-2.436,3.226,3.226,0,0,0-.956-2.452,3.693,3.693,0,0,0-2.653-.91h-4.1Z"/>
      <path id="Контур_92" data-name="Контур 92" class="cls-1" d="M3169.057,5231.9v2.869h-.988a4.616,4.616,0,0,0-3.207,1.109,3.942,3.942,0,0,0-1.234,3.085v8.081h-3.238V5231.9h3.022v1.974a5.382,5.382,0,0,1,4.411-2.129A5.067,5.067,0,0,1,3169.057,5231.9Z"/>
      <path id="Контур_93" data-name="Контур 93" class="cls-1" d="M3170.691,5239.456a7.392,7.392,0,0,1,2.328-5.6,8.158,8.158,0,0,1,11.367.015,7.859,7.859,0,0,1,0,11.2,7.631,7.631,0,0,1-5.707,2.313,7.948,7.948,0,0,1-7.988-7.927Zm12.707.031a4.94,4.94,0,0,0-1.357-3.531,4.62,4.62,0,0,0-6.693,0,4.945,4.945,0,0,0-1.356,3.531,4.865,4.865,0,0,0,1.341,3.5,4.693,4.693,0,0,0,6.708-.015A4.85,4.85,0,0,0,3183.4,5239.487Z"/>
      <path id="Контур_94" data-name="Контур 94" class="cls-1" d="M3199.437,5244.3v2.745a13.4,13.4,0,0,1-2.683.339,5.923,5.923,0,0,1-4.118-1.326,5.06,5.06,0,0,1-1.464-3.948v-7.4H3188.7V5231.9h2.468v-3.979h3.269v3.979h4.5v2.807h-4.5v7.125a2.488,2.488,0,0,0,.724,2.019,3.511,3.511,0,0,0,2.268.6Q3197.956,5244.454,3199.437,5244.3Z"/>
      <path id="Контур_95" data-name="Контур 95" class="cls-1" d="M3216.03,5240.535h-11.288a4.519,4.519,0,0,0,1.649,2.916,5.128,5.128,0,0,0,3.286,1.064,6.478,6.478,0,0,0,4.41-1.79l1.542,2.222a8.478,8.478,0,0,1-6.045,2.436,8.016,8.016,0,0,1-5.8-2.267,8,8,0,0,1-.062-11.257,7.341,7.341,0,0,1,5.551-2.3,6.813,6.813,0,0,1,5,1.989,6.7,6.7,0,0,1,2,4.95A9.759,9.759,0,0,1,3216.03,5240.535Zm-11.227-2.528h8.235a3.547,3.547,0,0,0-1.141-2.7,3.953,3.953,0,0,0-2.745-1,4.2,4.2,0,0,0-2.791,1A4.725,4.725,0,0,0,3204.8,5238.007Z"/>
      <path id="Контур_96" data-name="Контур 96" class="cls-1" d="M3219.021,5239.456a7.365,7.365,0,0,1,2.345-5.6,7.612,7.612,0,0,1,5.675-2.3,6.98,6.98,0,0,1,6.384,3.516l-2.283,1.789a4.792,4.792,0,0,0-4.071-2.313,4.5,4.5,0,0,0-3.392,1.418,5.195,5.195,0,0,0,0,7,4.5,4.5,0,0,0,3.392,1.418,4.91,4.91,0,0,0,4.071-2.282l2.283,1.758a7.2,7.2,0,0,1-2.683,2.591,7.488,7.488,0,0,1-3.7.925,7.768,7.768,0,0,1-5.691-2.313A7.616,7.616,0,0,1,3219.021,5239.456Z"/>
      <path id="Контур_97" data-name="Контур 97" class="cls-1" d="M3246.009,5244.3v2.745a13.4,13.4,0,0,1-2.683.339,5.923,5.923,0,0,1-4.118-1.326,5.06,5.06,0,0,1-1.464-3.948v-7.4h-2.468V5231.9h2.468v-3.979h3.269v3.979h4.5v2.807h-4.5v7.125a2.488,2.488,0,0,0,.724,2.019,3.511,3.511,0,0,0,2.268.6Q3244.529,5244.454,3246.009,5244.3Z"/>
    </g>
    <path id="Контур_98" data-name="Контур 98" class="cls-1" d="M3241.922,5258.486H3092.775a20.6,20.6,0,1,1,0-41.209h149.147a20.6,20.6,0,1,1,0,41.209Zm-149.147-38.4a17.8,17.8,0,1,0,0,35.593h149.147a17.8,17.8,0,1,0,0-35.593Z"/>
    <text id="ЮРИДИЧЕСКИЕ_УСЛУГИ" data-name="ЮРИДИЧЕСКИЕ УСЛУГИ" class="cls-2" transform="translate(3111.176 5270.183)"><tspan x="0" y="0">ЮРИДИЧЕСКИЕ УСЛУГИ</tspan></text>
  </g>
</svg>
