<svg xmlns="http://www.w3.org/2000/svg" width="190.356" height="41.209" viewBox="0 0 190.356 41.209">
  <g id="Сгруппировать_367" data-name="Сгруппировать 367" transform="translate(-624.822 -65.662)">
    <g id="Сгруппировать_325" data-name="Сгруппировать 325">
      <path id="Контур_302" data-name="Контур 302" d="M639.726,85.25a9.719,9.719,0,0,1,3.193-7.494,11.418,11.418,0,0,1,15.545,0,10.323,10.323,0,0,1,0,14.989,10.775,10.775,0,0,1-7.788,3.054,10.655,10.655,0,0,1-7.772-3.054A9.681,9.681,0,0,1,639.726,85.25Zm16.533,0a5.534,5.534,0,0,0-1.588-4.086,5.816,5.816,0,0,0-7.973-.016,5.608,5.608,0,0,0-1.543,4.1,5.711,5.711,0,0,0,1.543,4.133,5.9,5.9,0,0,0,7.988-.03A5.552,5.552,0,0,0,656.259,85.25Z" fill="#1a4b6b"/>
      <path id="Контур_303" data-name="Контур 303" d="M684.048,95.429h-6.291l-7.742-10.148V95.429h-5.3V75.072h5.3v9.222l6.724-9.222h6.168l-7,9.685Z" fill="#1a4b6b"/>
      <path id="Контур_304" data-name="Контур 304" d="M695.306,95.429V75.072h7.433a7.132,7.132,0,0,1,5,1.742,6.222,6.222,0,0,1-.015,8.991,7.1,7.1,0,0,1-4.981,1.758h-4.164v7.866Zm3.269-10.765h4.1a3.728,3.728,0,0,0,2.653-.894,3.175,3.175,0,0,0,.957-2.436,3.225,3.225,0,0,0-.957-2.453,3.7,3.7,0,0,0-2.653-.91h-4.1Z" fill="#1a4b6b"/>
      <path id="Контур_305" data-name="Контур 305" d="M721.709,80.284v2.869h-.988a4.616,4.616,0,0,0-3.208,1.11,3.94,3.94,0,0,0-1.234,3.085v8.081h-3.238V80.284h3.022v1.975a5.38,5.38,0,0,1,4.412-2.129A5.124,5.124,0,0,1,721.709,80.284Z" fill="#1a4b6b"/>
      <path id="Контур_306" data-name="Контур 306" d="M723.343,87.841a7.388,7.388,0,0,1,2.328-5.6,8.158,8.158,0,0,1,11.366.016,7.858,7.858,0,0,1,0,11.195,7.625,7.625,0,0,1-5.706,2.313,7.949,7.949,0,0,1-7.988-7.926Zm12.707.031a4.941,4.941,0,0,0-1.357-3.531,4.62,4.62,0,0,0-6.693,0,4.941,4.941,0,0,0-1.357,3.531,4.863,4.863,0,0,0,1.342,3.5,4.691,4.691,0,0,0,6.708-.015A4.847,4.847,0,0,0,736.05,87.872Z" fill="#1a4b6b"/>
      <path id="Контур_307" data-name="Контур 307" d="M752.089,92.684v2.745a13.411,13.411,0,0,1-2.684.338,5.917,5.917,0,0,1-4.117-1.325,5.057,5.057,0,0,1-1.465-3.948v-7.4h-2.467V80.284h2.467V76.306h3.269v3.978h4.5v2.808h-4.5v7.125a2.489,2.489,0,0,0,.724,2.019,3.519,3.519,0,0,0,2.268.6Q750.607,92.838,752.089,92.684Z" fill="#1a4b6b"/>
      <path id="Контур_308" data-name="Контур 308" d="M768.681,88.92H757.393a4.518,4.518,0,0,0,1.65,2.916,5.124,5.124,0,0,0,3.285,1.064,6.476,6.476,0,0,0,4.41-1.79l1.543,2.221a8.481,8.481,0,0,1-6.046,2.436,8.016,8.016,0,0,1-5.8-2.266,8.005,8.005,0,0,1-.061-11.258,7.342,7.342,0,0,1,5.551-2.3,6.81,6.81,0,0,1,5,1.989,6.7,6.7,0,0,1,2,4.95A9.764,9.764,0,0,1,768.681,88.92Zm-11.226-2.529h8.234a3.543,3.543,0,0,0-1.141-2.7,3.945,3.945,0,0,0-2.744-1,4.193,4.193,0,0,0-2.792,1A4.723,4.723,0,0,0,757.455,86.391Z" fill="#1a4b6b"/>
      <path id="Контур_309" data-name="Контур 309" d="M771.673,87.841a7.367,7.367,0,0,1,2.344-5.6,7.614,7.614,0,0,1,5.675-2.3,6.983,6.983,0,0,1,6.385,3.516l-2.283,1.788a4.793,4.793,0,0,0-4.071-2.312,4.5,4.5,0,0,0-3.393,1.418,5.2,5.2,0,0,0,0,7,4.5,4.5,0,0,0,3.393,1.419,4.912,4.912,0,0,0,4.071-2.282l2.283,1.758a7.208,7.208,0,0,1-2.684,2.591,7.488,7.488,0,0,1-3.7.924A7.765,7.765,0,0,1,774,93.454,7.616,7.616,0,0,1,771.673,87.841Z" fill="#1a4b6b"/>
      <path id="Контур_310" data-name="Контур 310" d="M798.661,92.684v2.745a13.4,13.4,0,0,1-2.684.338,5.917,5.917,0,0,1-4.117-1.325,5.057,5.057,0,0,1-1.465-3.948v-7.4h-2.467V80.284H790.4V76.306h3.269v3.978h4.5v2.808h-4.5v7.125a2.486,2.486,0,0,0,.725,2.019,3.514,3.514,0,0,0,2.267.6Q797.18,92.838,798.661,92.684Z" fill="#1a4b6b"/>
    </g>
    <path id="Контур_311" data-name="Контур 311" d="M794.574,106.871H645.426a20.6,20.6,0,0,1,0-41.209H794.574a20.6,20.6,0,0,1,0,41.209ZM645.426,68.47a17.8,17.8,0,0,0,0,35.593H794.574a17.8,17.8,0,0,0,0-35.593Z" fill="#1a4b6b"/>
  </g>
</svg>
