<svg xmlns="http://www.w3.org/2000/svg" width="25" height="25" viewBox="0 0 25 25">
  <path id="Контур_1" data-name="Контур 1" d="M3962.137,3843.027a2.486,2.486,0,1,0,2.486,2.486A2.489,2.489,0,0,0,3962.137,3843.027Zm0,0a2.486,2.486,0,1,0,2.486,2.486A2.489,2.489,0,0,0,3962.137,3843.027Zm4.142-4.053H3958a2.4,2.4,0,0,0-2.4,2.4v8.283a2.4,2.4,0,0,0,2.4,2.4h8.283a2.4,2.4,0,0,0,2.4-2.4v-8.283A2.4,2.4,0,0,0,3966.279,3838.974Zm-4.142,10.844a4.306,4.306,0,1,1,4.306-4.305A4.31,4.31,0,0,1,3962.137,3849.818Zm4.444-7.72a1.019,1.019,0,1,1,1.019-1.019A1.02,1.02,0,0,1,3966.581,3842.1Zm-4.444.929a2.486,2.486,0,1,0,2.486,2.486A2.489,2.489,0,0,0,3962.137,3843.027Zm4.142-4.053H3958a2.4,2.4,0,0,0-2.4,2.4v8.283a2.4,2.4,0,0,0,2.4,2.4h8.283a2.4,2.4,0,0,0,2.4-2.4v-8.283A2.4,2.4,0,0,0,3966.279,3838.974Zm-4.142,10.844a4.306,4.306,0,1,1,4.306-4.305A4.31,4.31,0,0,1,3962.137,3849.818Zm4.444-7.72a1.019,1.019,0,1,1,1.019-1.019A1.02,1.02,0,0,1,3966.581,3842.1Zm-4.444.929a2.486,2.486,0,1,0,2.486,2.486A2.489,2.489,0,0,0,3962.137,3843.027Zm-12.5,2.486h0a12.5,12.5,0,0,0,12.5,12.5h0a12.5,12.5,0,0,0,12.5-12.5h0a12.5,12.5,0,0,0-12.5-12.5h0A12.5,12.5,0,0,0,3949.637,3845.513Zm20.859,4.141a4.222,4.222,0,0,1-4.217,4.217H3958a4.221,4.221,0,0,1-4.217-4.217v-8.283a4.222,4.222,0,0,1,4.217-4.217h8.283a4.222,4.222,0,0,1,4.217,4.217v8.283Zm-4.217-10.68H3958a2.4,2.4,0,0,0-2.4,2.4v8.283a2.4,2.4,0,0,0,2.4,2.4h8.283a2.4,2.4,0,0,0,2.4-2.4v-8.283A2.4,2.4,0,0,0,3966.279,3838.974Zm-4.142,10.844a4.306,4.306,0,1,1,4.306-4.305A4.31,4.31,0,0,1,3962.137,3849.818Zm4.444-7.72a1.019,1.019,0,1,1,1.019-1.019A1.02,1.02,0,0,1,3966.581,3842.1Zm-4.444.929a2.486,2.486,0,1,0,2.486,2.486A2.489,2.489,0,0,0,3962.137,3843.027Zm0,0a2.486,2.486,0,1,0,2.486,2.486A2.489,2.489,0,0,0,3962.137,3843.027Zm0,0a2.486,2.486,0,1,0,2.486,2.486A2.489,2.489,0,0,0,3962.137,3843.027Zm4.142-4.053H3958a2.4,2.4,0,0,0-2.4,2.4v8.283a2.4,2.4,0,0,0,2.4,2.4h8.283a2.4,2.4,0,0,0,2.4-2.4v-8.283A2.4,2.4,0,0,0,3966.279,3838.974Zm-4.142,10.844a4.306,4.306,0,1,1,4.306-4.305A4.31,4.31,0,0,1,3962.137,3849.818Zm4.444-7.72a1.019,1.019,0,1,1,1.019-1.019A1.02,1.02,0,0,1,3966.581,3842.1Zm-4.444.929a2.486,2.486,0,1,0,2.486,2.486A2.489,2.489,0,0,0,3962.137,3843.027Zm0,0a2.486,2.486,0,1,0,2.486,2.486A2.489,2.489,0,0,0,3962.137,3843.027Zm0,0a2.486,2.486,0,1,0,2.486,2.486A2.489,2.489,0,0,0,3962.137,3843.027Zm4.142-4.053H3958a2.4,2.4,0,0,0-2.4,2.4v8.283a2.4,2.4,0,0,0,2.4,2.4h8.283a2.4,2.4,0,0,0,2.4-2.4v-8.283A2.4,2.4,0,0,0,3966.279,3838.974Zm-4.142,10.844a4.306,4.306,0,1,1,4.306-4.305A4.31,4.31,0,0,1,3962.137,3849.818Zm4.444-7.72a1.019,1.019,0,1,1,1.019-1.019A1.02,1.02,0,0,1,3966.581,3842.1Zm-4.444.929a2.486,2.486,0,1,0,2.486,2.486A2.489,2.489,0,0,0,3962.137,3843.027Z" transform="translate(-3949.637 -3833.013)" fill="#2c80b8"/>
</svg>
